<svg width="238" height="193" viewBox="0 0 238 193" fill="none" xmlns="http://www.w3.org/2000/svg">
<g clip-path="url(#clip0)">
<path d="M185.022 160.107C191.735 160.107 197.177 148.97 197.177 135.231C197.177 121.493 191.735 110.356 185.022 110.356C178.309 110.356 172.867 121.493 172.867 135.231C172.867 148.97 178.309 160.107 185.022 160.107Z" fill="#3F3D56"/>
<path d="M183.9 175.948C188.768 146.652 183.949 117.462 183.9 117.171L182.953 117.332C183.002 117.622 187.793 146.659 182.952 175.79L183.9 175.948Z" fill="#3570B5"/>
<path d="M174.321 129.882L173.868 130.732L184.859 136.628L185.312 135.779L174.321 129.882Z" fill="#3570B5"/>
<path d="M196.459 132.836L185.469 138.736L185.923 139.586L196.913 133.685L196.459 132.836Z" fill="#3570B5"/>
<path d="M214.227 144.516C227.356 144.516 238 122.733 238 95.8621C238 68.9915 227.356 47.2085 214.227 47.2085C201.097 47.2085 190.453 68.9915 190.453 95.8621C190.453 122.733 201.097 144.516 214.227 144.516Z" fill="#E6E6E6"/>
<path d="M211.579 175.425C221.087 118.201 211.674 61.1854 211.578 60.6162L210.631 60.7771C210.727 61.3449 220.112 118.207 210.631 175.267L211.579 175.425Z" fill="#3570B5"/>
<path d="M193.08 85.8059L192.626 86.6555L214.125 98.1892L214.578 97.3396L193.08 85.8059Z" fill="#3570B5"/>
<path d="M236.813 91.5834L215.318 103.123L215.771 103.973L237.266 92.4329L236.813 91.5834Z" fill="#3570B5"/>
<path d="M157.921 133.157C175.888 133.157 190.453 103.349 190.453 66.5786C190.453 29.8083 175.888 0 157.921 0C139.954 0 125.389 29.8083 125.389 66.5786C125.389 103.349 139.954 133.157 157.921 133.157Z" fill="#E6E6E6"/>
<path d="M154.123 175.425C167.13 97.1472 154.254 19.1555 154.123 18.377L153.176 18.5378C153.307 19.315 166.155 97.1533 153.176 175.267L154.123 175.425Z" fill="#3570B5"/>
<path d="M128.9 52.9739L128.447 53.8235L157.865 69.6063L158.318 68.7567L128.9 52.9739Z" fill="#3570B5"/>
<path d="M188.912 60.8802L159.498 76.6709L159.951 77.5204L189.365 61.7297L188.912 60.8802Z" fill="#3570B5"/>
<path d="M228.175 176.007H0V175.459H228.274L228.175 176.007Z" fill="#3F3D56"/>
<path d="M39.0935 169.896H33.5803C30.6964 169.896 28.1202 170.101 26.4196 171.197C25.6198 169.737 24.4437 168.519 23.0143 167.672C21.5848 166.824 19.9544 166.377 18.2937 166.377H12.7805C11.5628 166.377 10.3571 166.618 9.23217 167.085C8.10722 167.552 7.08506 168.237 6.22406 169.101C5.36306 169.965 4.68007 170.99 4.2141 172.118C3.74813 173.247 3.5083 174.456 3.5083 175.677V175.677H48.3657V175.677C48.3657 170.541 44.2144 169.896 39.0935 169.896Z" fill="#3F3D56"/>
<path d="M189.457 175.949H213.007C212.888 171.543 209.597 170.671 203.988 170.671H198.475C192.867 170.671 189.576 171.543 189.457 175.949Z" fill="#3F3D56"/>
<path d="M50.0562 110.142L53.2401 111.62L51.0297 116.41C50.8342 116.834 50.4791 117.162 50.0424 117.323C49.6057 117.484 49.1231 117.464 48.7009 117.268C48.2787 117.072 47.9514 116.716 47.791 116.278C47.6306 115.84 47.6503 115.356 47.8457 114.932L50.0562 110.142Z" fill="#FFB9B9"/>
<path d="M81.2489 43.1902H81.2489C84.6385 43.1902 87.8893 44.5408 90.2861 46.9448C92.683 49.3489 94.0295 52.6095 94.0295 56.0093V70.3367H68.4683V56.0093C68.4683 52.6095 69.8148 49.3489 72.2116 46.9448C74.6084 44.5408 77.8592 43.1902 81.2489 43.1902Z" fill="#2F2E41"/>
<path d="M71.726 178.171L68.9694 177.668L66.9646 166.608L72.6031 166.732L71.726 178.171Z" fill="#FFB9B9"/>
<path d="M102.174 184.578L99.3472 185.889L94.8364 172.818L99.668 172.01L102.174 184.578Z" fill="#FFB9B9"/>
<path d="M100.921 172.764L93.5283 173.143L73.355 124.253L72.8048 168.282L65.7116 167.362C60.7106 139.962 56.5728 115.621 63.0803 100.374L85.1332 102.133L100.921 172.764Z" fill="#2F2E41"/>
<path d="M67.2946 185.875L64.4259 185.72C64.3 185.713 64.1778 185.674 64.0711 185.607C63.9643 185.539 63.8764 185.446 63.8158 185.335C63.7551 185.224 63.7237 185.099 63.7244 184.973C63.7251 184.846 63.758 184.722 63.8199 184.612L68.1863 176.842L72.0206 177.162L72.6124 179.933C72.7224 180.447 72.6859 180.983 72.5072 181.478C72.3284 181.973 72.0146 182.407 71.6015 182.732L69.7212 184.209C69.5558 184.716 69.2284 185.154 68.7897 185.455C68.351 185.757 67.8255 185.904 67.2946 185.875Z" fill="#2F2E41"/>
<path d="M106.381 192.091L103.903 192.945C103.738 193.002 103.561 193.015 103.39 192.983C103.218 192.95 103.058 192.874 102.925 192.761L98.6123 189.093C98.2136 188.754 97.9228 188.305 97.7761 187.802C97.6293 187.298 97.6331 186.763 97.7868 186.262L98.3285 184.496L102.435 183.699L106.898 190.586C106.981 190.715 107.034 190.861 107.053 191.013C107.071 191.165 107.055 191.32 107.005 191.465C106.956 191.61 106.874 191.742 106.765 191.85C106.657 191.959 106.526 192.041 106.381 192.091Z" fill="#2F2E41"/>
<path d="M79.4945 63.2988C84.2002 63.2988 88.0149 59.4726 88.0149 54.7527C88.0149 50.0328 84.2002 46.2065 79.4945 46.2065C74.7888 46.2065 70.9741 50.0328 70.9741 54.7527C70.9741 59.4726 74.7888 63.2988 79.4945 63.2988Z" fill="#FFB9B9"/>
<path d="M88.1402 67.4461L78.1162 69.2056L77.1138 61.1622L84.8824 60.1567L88.1402 67.4461Z" fill="#FFB9B9"/>
<path d="M88.1402 104.898L62.3284 102.385C63.5941 88.5719 67.8359 76.3897 76.6126 66.6922L89.1426 65.6868L88.1402 104.898Z" fill="#3F3D56"/>
<path d="M53.6828 112.567L48.4202 110.807L57.5019 92.3911L71.0995 70.2111L76.6127 66.6921L64.4145 94.1108L53.6828 112.567Z" fill="#3F3D56"/>
<path d="M85.2584 51.9878L69.7212 55.0041L72.2272 47.212L81.2488 45.2012L88.2656 47.7147L85.2584 51.9878Z" fill="#2F2E41"/>
<path d="M53.1481 115.26C66.1151 115.26 76.627 104.717 76.627 91.7106C76.627 78.7045 66.1151 68.1609 53.1481 68.1609C40.181 68.1609 29.6692 78.7045 29.6692 91.7106C29.6692 104.717 40.181 115.26 53.1481 115.26Z" fill="#3570B5"/>
<path d="M80.2987 118.618L66.0939 114.892L51.8889 111.166L62.2084 100.69L72.5281 90.2139L76.4134 104.416L80.2987 118.618Z" fill="#3570B5"/>
<path d="M53.177 99.9215C57.8294 99.9215 61.6009 96.1387 61.6009 91.4722C61.6009 86.8058 57.8294 83.0229 53.177 83.0229C48.5247 83.0229 44.7532 86.8058 44.7532 91.4722C44.7532 96.1387 48.5247 99.9215 53.177 99.9215Z" fill="white"/>
<path d="M78.1233 115.923L81.3072 117.401L79.0968 122.192C78.9014 122.615 78.5463 122.943 78.1095 123.104C77.6728 123.265 77.1902 123.245 76.768 123.049C76.3458 122.853 76.0185 122.497 75.8581 122.059C75.6978 121.621 75.7174 121.137 75.9129 120.714L78.1233 115.923Z" fill="#FFB9B9"/>
<path d="M81.4993 119.102L76.9885 116.337L79.3538 100.188L89.1426 66.9434L91.0017 67.6563C92.8353 68.3595 94.347 69.7146 95.2489 71.4635C96.1508 73.2124 96.3799 75.2329 95.8925 77.1402L89.5487 101.968L81.4993 119.102Z" fill="#3F3D56"/>
</g>
<defs>
<clipPath id="clip0">
<rect width="238" height="193" fill="white"/>
</clipPath>
</defs>
</svg>
