<svg width="180" height="220" viewBox="0 0 180 220" fill="none" xmlns="http://www.w3.org/2000/svg">
<path d="M105.505 220C104.915 220 104.399 219.574 104.399 219.064V218.723C104.399 218.213 104.891 217.787 105.505 217.787H130.684C131.273 217.787 131.789 218.213 131.789 218.723V219.064C131.789 219.574 131.298 220 130.684 220H105.505ZM38.9348 220C38.6416 220 38.3604 219.883 38.1531 219.676C37.9458 219.468 37.8293 219.187 37.8293 218.894C37.8293 218.6 37.9458 218.319 38.1531 218.111C38.3604 217.904 38.6416 217.787 38.9348 217.787H78.9751C79.2682 217.787 79.5494 217.904 79.7567 218.111C79.964 218.319 80.0805 218.6 80.0805 218.894C80.0805 219.187 79.964 219.468 79.7567 219.676C79.5494 219.883 79.2682 220 78.9751 220H38.9348Z" fill="#3570B5"/>
<path d="M130.776 217.79C130.746 217.788 130.714 217.786 130.684 217.786H105.589L107.575 205.244L124.323 201.976L130.777 217.79H130.776ZM79.0334 217.788C79.014 217.788 78.9946 217.786 78.9754 217.786H39.1085C39.0781 217.613 39.0659 217.438 39.0719 217.262C39.0818 217.202 39.0884 217.139 39.0965 217.072C39.1066 216.946 39.1267 216.821 39.1567 216.698C39.4741 215.514 39.858 214.741 40.9713 214.05C42.08 213.358 43.2314 212.737 44.4187 212.192C46.2551 211.328 47.5661 210.838 48.7226 210.405C50.2793 209.823 51.509 209.363 53.1845 208.263C54.3699 207.468 55.4794 206.565 56.4988 205.566C57.5143 204.584 60.6502 202.369 60.6826 202.348L77.7403 202.772L79.0331 217.787L79.0334 217.788Z" fill="#474961"/>
<path d="M74.3391 72.5912C74.3254 72.5771 74.3071 72.5683 74.2875 72.5666C73.893 72.4582 73.5135 72.3013 73.1576 72.0995C72.8224 71.9383 72.5112 71.7314 72.2327 71.4848C69.9462 69.5179 69.9728 65.0677 70.0234 63.9859V63.3713C70.0786 61.6583 70.1462 58.0817 70.2481 51.2366C69.7622 51.3039 69.272 51.3358 68.7814 51.3322C68.2144 51.3187 67.5166 51.3568 66.7553 51.394C65.4534 51.4584 63.9687 51.5228 62.64 51.3322C55.4605 50.3011 54.5494 48.5759 54.4005 47.8218C54.1962 46.7705 54.6786 46.0848 57.4318 41.2852C59.7748 37.2171 66.968 29.3116 69.1518 27.8467C71.3356 26.3819 76.3959 25.292 76.3959 25.292C76.389 25.307 76.3821 25.3234 76.375 25.3411C79.8888 24.0324 84.1824 23.939 86.4898 23.8362C87.6971 23.787 94.3259 23.787 95.5327 23.8362C97.8853 23.9172 100.213 24.3439 102.442 25.1024C102.504 24.957 102.619 24.8408 102.764 24.7776C102.908 24.7145 103.072 24.7092 103.22 24.7629C105.554 25.0825 110.049 26.5995 110.369 26.747C115.255 28.7547 127.906 37.9365 128.741 38.5512C129.576 39.1659 127.245 42.6493 125.123 44.6487C123.068 46.5846 120.461 46.9903 115.946 49.7191C115.216 50.1605 112.801 50.3417 111.765 50.4004C111.872 57.8009 111.944 61.6084 112.002 63.3718C111.986 63.5763 111.986 63.7818 112.002 63.9864C112.053 65.0682 112.079 69.5184 109.766 71.4853C109.477 71.718 109.168 71.9237 108.841 72.1C108.485 72.3018 108.106 72.4587 107.711 72.5671L107.66 72.5917C102.102 73.9358 96.548 74.3838 91.6112 74.3838C81.7387 74.3831 74.3391 72.5912 74.3391 72.5912Z" fill="#F3F4AF"/>
<path d="M106.586 205.466C105.087 205.146 103.908 203.843 103.589 202.147C102.213 194.771 98.381 174.659 98.0616 172.864C97.6195 170.602 97.2019 168.045 96.7843 165.119C96.7843 165.119 92.7254 141.235 89.692 116.599C89.2675 123.602 88.8476 130.604 88.4323 137.607C87.6708 143.336 87.2778 147.909 87.0812 150.589C87.0812 150.589 84.8213 181.617 81.9964 201.311C81.8981 201.95 81.7016 203.278 80.6944 204.409C78.5573 206.769 75.5359 204.999 66.3733 204.581C66.3733 204.581 57.3581 204.187 55.442 201.95C55.2087 201.663 55.0108 201.35 54.8525 201.016C54.5937 200.309 54.4931 199.553 54.5577 198.803C56.9159 175.987 55.6385 163.841 59.3232 137.288C61.9517 118.381 69.2719 81.0708 69.2719 81.0708L70.0088 71.8836V69.4869C70.009 67.2419 70.6623 65.0455 71.889 63.166C73.1157 61.2864 74.8627 59.8051 76.9167 58.9029C76.7398 58.7198 76.6412 58.475 76.6415 58.2204V24.7828C76.6415 24.5219 76.745 24.2718 76.9293 24.0874C77.1136 23.9029 77.3635 23.7993 77.6241 23.7993H79.8349C80.0955 23.7993 80.3454 23.9029 80.5297 24.0874C80.714 24.2718 80.8175 24.5219 80.8175 24.7828V57.8951L92.2845 55.985L99.2412 57.2615C99.2412 57.2532 99.2412 57.245 99.2412 57.2369V24.7828C99.2412 24.5219 99.3447 24.2718 99.529 24.0874C99.7133 23.9029 99.9632 23.7993 100.224 23.7993H102.435C102.695 23.7993 102.945 23.9029 103.129 24.0874C103.314 24.2718 103.417 24.5219 103.417 24.7828V57.2369C103.417 57.3749 103.388 57.5114 103.332 57.6374C103.276 57.7634 103.194 57.8762 103.092 57.9684C105.428 58.4077 107.572 59.5579 109.23 61.2619C110.889 62.9659 111.982 65.1407 112.36 67.4895C113.3 71.683 116.058 84.8134 119.408 108.324C120.858 118.601 121.963 127.428 122.774 134.214L122.7 134.238C123.167 138.319 123.633 142.794 123.732 143.999C123.953 146.949 124.37 151.522 124.886 156.858C126.213 170.7 127.687 190.566 128.153 197.155C128.202 198.015 128.522 200.351 127.22 201.998C126.827 202.466 126.458 202.711 125.697 203.154C125.083 203.523 122.454 204.728 117.025 205.785C116.682 205.834 116.313 205.883 115.945 205.908C114.25 206.003 112.932 206.046 111.857 206.046C110.082 206.079 108.311 205.884 106.586 205.466Z" fill="#3570B5"/>
<path d="M61.7063 99.2378L60.9117 93.5783C60.1772 92.1097 58.6868 89.0438 56.856 84.8159C55.3173 81.2626 53.8395 77.5897 52.4634 73.8995C50.7439 69.2856 49.1784 64.6304 47.8118 60.0639C47.3815 58.6251 48.1444 56.3956 50.0804 53.4369C51.5366 51.2113 53.6307 48.6052 56.3046 45.6922C56.4703 45.8805 56.6819 46.0229 56.9187 46.1055L71.6407 51.3404C71.7829 51.3911 71.9321 51.4195 72.0829 51.4247L62.5236 63.0844L69.0789 87.843L69.286 87.814C69.7493 87.7481 70.2216 87.8317 70.6343 88.0527C70.9495 87.7906 71.3316 87.6218 71.7375 87.5654L73.4406 87.3257C73.7281 87.2852 74.0207 87.3019 74.3018 87.3746C74.5829 87.4474 74.8469 87.5748 75.0788 87.7497C75.3106 87.9246 75.5058 88.1435 75.6532 88.3939C75.8005 88.6443 75.8972 88.9212 75.9376 89.209L77.0658 97.2436C77.1062 97.5314 77.0896 97.8243 77.0169 98.1056C76.9442 98.387 76.8169 98.6512 76.6421 98.8833C76.4674 99.1154 76.2487 99.3107 75.9986 99.4582C75.7484 99.6057 75.4717 99.7024 75.1842 99.7428L73.4814 99.9823C73.0179 100.048 72.5455 99.9647 72.1328 99.7436C71.8175 100.006 71.4354 100.174 71.0296 100.231L69.0836 100.505C68.7793 100.548 68.4694 100.527 68.1737 100.443C67.878 100.359 67.603 100.215 67.3665 100.018C67.1921 100.251 66.9732 100.448 66.7225 100.596C66.4719 100.744 66.1944 100.841 65.9061 100.881L64.2031 101.121C64.1002 101.135 63.9964 101.142 63.8926 101.142C63.3601 101.142 62.8458 100.949 62.4441 100.599C62.0425 100.249 61.7805 99.7656 61.7063 99.2378ZM124.771 99.0758C122.026 97.901 119.486 96.2967 117.244 94.323C117.007 92.6646 116.496 89.6734 115.726 85.4197L115.718 85.4232C115.025 81.5968 114.285 77.661 113.907 75.6555V74.3821L125.55 58.1853C124.143 56.9451 123.012 55.9971 122.015 55.1612C120.158 53.6048 118.554 52.2599 115.958 49.6968C117.547 48.7536 119.19 47.9043 120.878 47.1531C122.559 46.3769 123.887 45.764 125.024 44.6932C126.498 43.3053 128.03 41.2469 128.59 39.9057C130.052 41.0338 131.421 42.1374 132.659 43.1861C134.443 44.6689 136.136 46.2595 137.727 47.949C139.015 49.3528 139.844 50.516 140.191 51.4063C140.648 52.6164 140.945 53.881 141.075 55.168C141.167 56.5238 141.056 57.8858 140.744 59.2083C140.55 60.0321 140.291 60.8392 139.97 61.6222C139.169 63.6344 137.402 66.1348 134.718 69.0537C132.156 71.7867 129.442 74.3734 126.59 76.8014C123.937 79.0936 121.369 81.1483 119.409 82.6705L127.057 96.4281C127.21 96.7259 127.284 97.0585 127.271 97.3934C127.258 97.7283 127.158 98.0541 126.982 98.339C126.769 98.7138 126.426 98.9964 126.017 99.1322C125.609 99.2681 125.165 99.2473 124.771 99.0741L124.771 99.0758ZM83.671 23.9816C83.671 23.9816 85.3004 23.7283 87.11 23.539L87.0609 21.3589C85.7853 21.8334 85.8573 21.786 85.7307 21.828C84.715 22.1021 83.6601 22.2018 82.611 22.1231C81.7267 22.0493 80.7933 21.3117 79.9581 20.0578C78.8281 18.3859 77.8209 15.7798 77.2805 12.6573C77.1951 12.2195 77.1458 11.7755 77.1331 11.3296L77.0349 6.92863C77.0051 5.93348 77.2426 4.94857 77.7227 4.0766C77.8892 3.72083 78.1041 3.38986 78.3614 3.09314L78.3859 3.06314C78.3948 3.04888 78.4034 3.03438 78.4117 3.01962C80.3017 0.389116 84.2566 0.044905 86.0744 0.241351C86.2955 0.265937 87.0816 0.364283 88.2115 0.438043C88.8256 0.487216 89.3169 0.487216 89.6117 0.511802C90.6827 0.554829 91.5643 0.547453 92.3219 0.540077C94.1535 0.522129 95.2601 0.50418 96.5635 1.20022C97.2677 1.55645 97.8875 2.05946 98.3813 2.67541C100.322 5.10947 99.8551 8.25654 99.7323 9.19083C99.2902 11.9937 97.6689 13.7147 97.1776 14.4278C96.491 15.3661 95.7298 16.2473 94.9014 17.0629L95.1269 23.6895C96.1095 23.7999 96.7993 23.8935 96.7993 23.8935C96.7993 23.8935 94.0051 26.4751 92.5452 26.7308C91.0853 26.9865 91.7614 26.987 89.2722 26.987C86.7831 26.987 83.671 23.9816 83.671 23.9816Z" fill="#DB9E75"/>
<path d="M87.0076 21.3467L90.5203 19.814L87.1257 23.7999L87.0076 21.3467Z" fill="#482D1F"/>
<path d="M95.8671 10.4001C95.8806 9.69538 95.6683 9.00479 95.2613 8.42953C94.9563 7.99752 94.5555 7.64207 94.0902 7.39104C93.625 7.14001 93.108 7.00022 92.5798 6.98262C92.3225 6.98131 92.0667 7.02158 91.8222 7.10186C91.3855 7.25823 90.995 7.52192 90.6866 7.86872L90.668 7.88839C90.2703 8.3928 89.9931 8.98146 89.8573 9.60944L89.8394 9.78671C89.3872 9.3176 88.9143 8.82784 88.4146 8.31004C86.9508 6.79453 85.4377 5.22764 84.2018 3.92529C83.3471 4.15814 82.4654 4.27701 81.5795 4.27884C80.9264 4.27945 80.275 4.21163 79.636 4.0765L78.3871 3.56018C78.3256 3.53456 78.2707 3.49535 78.2264 3.44549C78.1822 3.39563 78.1497 3.3364 78.1316 3.27223C78.1134 3.20806 78.11 3.14062 78.1215 3.07493C78.1331 3.00924 78.1593 2.94702 78.1982 2.8929C78.9514 1.86027 80.0813 1.08457 81.5569 0.584234C82.7422 0.19714 83.9811 -1.70756e-05 85.2279 5.95811e-05C85.5504 -0.00110255 85.8729 0.0147367 86.1938 0.0475115C86.2399 0.0521829 86.3043 0.059313 86.3856 0.0681641C86.7644 0.109715 87.4692 0.187163 88.4387 0.248875C88.8173 0.278133 89.1477 0.290426 89.4132 0.300506C89.6068 0.307636 89.7736 0.314029 89.9015 0.325093C90.5053 0.349679 91.0988 0.35976 91.7699 0.35976C92.1057 0.35976 92.4202 0.357055 92.7392 0.354105H92.794C93.0765 0.351155 93.3433 0.348696 93.5956 0.348696C94.2289 0.336094 94.8622 0.374904 95.4893 0.464744C96.0753 0.56014 96.6418 0.751176 97.166 1.03023C97.8976 1.39219 98.5427 1.90757 99.0575 2.54132C99.5645 3.1577 99.9641 3.85513 100.24 4.60437C100.474 5.24578 100.623 5.91542 100.682 6.59587C100.774 7.4745 100.703 8.3627 100.47 9.21507C100.295 9.73901 100.141 10.0773 99.8699 10.2561C99.736 10.3441 98.2022 10.3996 95.8658 10.4011L95.8671 10.4001ZM82.9544 10.1265C82.8984 10.113 82.8473 10.0841 82.8068 10.043C82.7663 10.002 82.7381 9.95042 82.7254 9.89418C82.7126 9.83794 82.7158 9.77926 82.7345 9.72473C82.7533 9.67021 82.7869 9.62202 82.8316 9.58559C83.1488 9.32285 83.5499 9.1832 83.9616 9.19221C84.9687 9.19221 86.0496 9.88063 84.9196 10.1511C84.6448 10.2235 84.3616 10.2587 84.0775 10.2558C83.6997 10.2512 83.3234 10.2079 82.9544 10.1265ZM77.8941 9.95439C77.839 9.94029 77.7885 9.91181 77.7479 9.87185C77.7073 9.83188 77.6781 9.78186 77.6631 9.72689C77.6481 9.67191 77.6479 9.61394 77.6626 9.55889C77.6773 9.50383 77.7064 9.45366 77.7467 9.41349C78.0566 9.1547 78.4486 9.01519 78.8521 9.0201C79.8593 9.0201 80.9401 9.68394 79.8102 9.97898C79.5418 10.0445 79.2664 10.076 78.9902 10.0729C78.6219 10.0702 78.2547 10.0304 77.8944 9.95414L77.8941 9.95439Z" fill="#482D1F"/>
<path d="M83.1757 11.4791C83.2739 11.1595 83.4459 11.0857 83.6424 11.0857C83.7867 11.0901 83.9242 11.1479 84.0285 11.2477C84.1328 11.3476 84.1965 11.4825 84.2074 11.6266C84.232 12.0446 84.232 12.733 83.9863 13.028C83.9654 13.0545 83.9389 13.076 83.9087 13.0911C83.8785 13.1061 83.8454 13.1143 83.8117 13.1151C83.4395 13.1148 82.9652 12.1528 83.1757 11.4791ZM78.8277 11.4053C78.9506 11.0857 79.1225 11.0365 79.319 11.0611C79.4603 11.0889 79.5871 11.166 79.6771 11.2785C79.767 11.391 79.8142 11.5317 79.8103 11.6758C79.7858 12.0937 79.7121 12.7822 79.4664 13.028C79.423 13.0698 79.3655 13.0939 79.3053 13.0954C78.9277 13.0961 78.5484 12.0716 78.8277 11.4051V11.4053Z" fill="#482D1F"/>
<path d="M82.1089 15.9852C82.2809 16.0344 82.5868 16.133 82.8562 16.2991C83.0702 16.4312 83.0702 16.4312 82.8562 16.6733C82.7579 16.8454 82.4632 16.545 82.021 16.5204C81.5462 16.4908 80.9809 16.7909 80.5963 16.545C80.2116 16.2991 80.9357 16.0722 80.9357 16.0722C80.9357 16.0722 81.8387 15.9114 82.1089 15.9852Z" fill="#482D1F"/>
<path fill-rule="evenodd" clip-rule="evenodd" d="M80.7681 10.0457C80.8941 10.0457 80.9963 10.1478 80.9963 10.2739V11.7245C80.9963 11.7351 80.9956 11.7456 80.9941 11.7561L80.6266 14.3804C80.6258 14.3962 80.6306 14.4119 80.6403 14.4245C80.6494 14.4363 80.662 14.4446 80.6761 14.4483C80.6845 14.449 80.6929 14.4496 80.7013 14.4503C81.0042 14.4737 81.2908 14.4958 81.8244 14.4958C81.9504 14.4958 82.0526 14.598 82.0526 14.724C82.0526 14.8501 81.9504 14.9522 81.8244 14.9522C81.2733 14.9522 80.9732 14.9291 80.6658 14.9053C80.6532 14.9043 80.6405 14.9034 80.6278 14.9024C80.6212 14.9019 80.6147 14.9011 80.6083 14.9C80.4772 14.8785 80.3593 14.8079 80.2784 14.7027C80.1975 14.5974 80.1597 14.4653 80.1725 14.3332L80.1734 14.3235L80.1736 14.3236L80.5399 11.7086V10.2739C80.5399 10.1478 80.6421 10.0457 80.7681 10.0457Z" fill="#482D1F"/>
<path d="M66.4637 58.0607C66.3869 58.0003 66.3372 57.9118 66.3256 57.8147C66.314 57.7176 66.3414 57.6198 66.4018 57.5429L71.2931 51.3154C71.299 51.3078 71.3054 51.3004 71.3118 51.2933C71.3216 50.1046 71.3299 48.9266 71.3479 46.2169C71.3665 43.4414 71.3746 42.2728 71.3847 41.0538C71.3855 40.956 71.4251 40.8625 71.4948 40.7939C71.5645 40.7253 71.6585 40.6872 71.7562 40.6881C71.854 40.6889 71.9474 40.7285 72.0159 40.7982C72.0844 40.868 72.1225 40.9621 72.1216 41.0599C72.1116 42.2787 72.1032 43.4475 72.085 46.2231C72.0669 48.9986 72.0583 50.1675 72.0482 51.3862C72.0478 51.435 72.0377 51.4832 72.0186 51.528C71.9994 51.5728 71.9716 51.6134 71.9367 51.6474C71.9234 51.6925 71.9017 51.7348 71.8726 51.7718L66.981 57.9988C66.9206 58.0756 66.8322 58.1254 66.7352 58.137C66.6382 58.1486 66.5405 58.1212 66.4637 58.0607ZM93.6631 13.7945C93.6496 13.7652 93.6419 13.7335 93.6407 13.7012C93.6394 13.669 93.6445 13.6368 93.6556 13.6065C93.6668 13.5762 93.6838 13.5484 93.7057 13.5247C93.7276 13.5009 93.7539 13.4818 93.7832 13.4682C94.5142 13.17 95.111 12.6146 95.4612 11.9065C95.794 11.2475 95.9142 10.5014 95.8051 9.77117C95.799 9.7388 95.7995 9.70554 95.8065 9.67336C95.8135 9.64118 95.8268 9.61073 95.8458 9.58383C95.8648 9.55692 95.889 9.5341 95.9169 9.51673C95.9449 9.49936 95.976 9.48778 96.0085 9.48269C96.041 9.4776 96.0742 9.4791 96.1062 9.4871C96.1381 9.49509 96.1681 9.50943 96.1943 9.52925C96.2206 9.54907 96.2426 9.57397 96.2591 9.60248C96.2756 9.63098 96.2862 9.66251 96.2903 9.69519C96.4155 10.5275 96.2788 11.3783 95.8989 12.1293C95.65 12.6269 95.2914 13.0614 94.85 13.3999C94.5848 13.6056 94.2956 13.7784 93.9888 13.9142C93.9595 13.9278 93.9278 13.9354 93.8956 13.9367C93.8634 13.9379 93.8312 13.9329 93.8009 13.9217C93.7707 13.9105 93.7429 13.8935 93.7192 13.8716C93.6955 13.8497 93.6763 13.8233 93.6628 13.794L93.6631 13.7945Z" fill="#482D1F"/>
<path opacity="0.2" d="M125.468 99.2236C125.228 99.222 124.991 99.1718 124.771 99.0761C122.026 97.9016 119.485 96.2977 117.244 94.3245C116.978 92.4714 116.373 88.954 115.443 83.8723L119.072 82.0698L127.056 96.4313C127.209 96.729 127.283 97.0615 127.271 97.3964C127.258 97.7314 127.158 98.0572 126.982 98.3421C126.826 98.6068 126.605 98.8269 126.34 98.9813C126.075 99.1357 125.775 99.2191 125.468 99.2236Z" fill="#8C2A00"/>
<path opacity="0.177" d="M83.6776 61.1714C83.2065 61.1714 82.751 61.3408 82.3942 61.6487C82.0375 61.9566 81.8031 62.3825 81.7338 62.8489L80.8593 68.7357L75.2018 71.7957C74.9752 71.9185 74.7847 72.0987 74.6494 72.3182C74.514 72.5377 74.4385 72.7888 74.4305 73.0467L74.3123 76.7516C74.0573 78.152 74.3123 83.7909 74.3123 83.7909L108.133 83.0644L108.408 76.7516L107.994 72.3931C107.97 72.1451 107.885 71.9071 107.744 71.7013C107.604 71.4954 107.414 71.3286 107.192 71.2162L102.08 68.6302L101.371 62.8966C101.312 62.4203 101.081 61.9819 100.722 61.6641C100.362 61.3464 99.8993 61.1711 99.4198 61.1714H83.6776Z" fill="#444444"/>
<path d="M179.567 219.999H165.074C165.07 216.544 163.697 213.232 161.257 210.789C158.816 208.346 155.507 206.972 152.055 206.968H28.7406C25.2889 206.972 21.9796 208.346 19.5389 210.789C17.0982 213.232 15.7253 216.544 15.7213 219.999H4.25563e-06V98.7876C-0.0013526 97.1406 0.321766 95.5095 0.950874 93.9875C1.57998 92.4656 2.50273 91.0828 3.66633 89.9181C4.82993 88.7535 6.21154 87.8299 7.73211 87.2003C9.25268 86.5706 10.8824 86.2472 12.528 86.2485H167.039C168.685 86.2472 170.315 86.5706 171.835 87.2003C173.356 87.8299 174.737 88.7535 175.901 89.9181C177.065 91.0828 177.987 92.4656 178.616 93.9875C179.245 95.5095 179.569 97.1406 179.567 98.7876V219.999Z" fill="#EFF7FF"/>
<path d="M12.5279 86.2485H167.039C170.362 86.2485 173.548 87.5696 175.898 89.9212C178.247 92.2727 179.567 95.4621 179.567 98.7876V100.324H0V98.7876C0 95.4621 1.3199 92.2727 3.66935 89.9212C6.0188 87.5696 9.20533 86.2485 12.5279 86.2485V86.2485Z" fill="#DFE8F1"/>
</svg>
