<svg width="304" height="205" viewBox="0 0 304 205" fill="none" xmlns="http://www.w3.org/2000/svg">
<path d="M272.306 181.447C268.959 176.327 266.78 170.534 265.949 164.471C265.836 164.606 265.724 164.763 265.634 164.898C266.398 164.83 267.05 164.988 267.656 165.459C267.993 165.729 268.465 165.257 268.128 164.988C267.364 164.404 266.578 164.134 265.634 164.224C265.387 164.247 265.275 164.426 265.32 164.651C266.173 170.781 268.353 176.619 271.745 181.784C271.969 182.143 272.554 181.806 272.306 181.447Z" fill="#E8E8E8"/>
<path d="M268.106 165.1C267.342 157.218 268.555 149.269 271.655 141.971C271.453 141.971 271.273 141.971 271.071 141.971C271.408 142.465 271.655 142.937 271.857 143.498C271.992 143.903 272.643 143.723 272.509 143.319C272.284 142.712 272.037 142.174 271.655 141.635C271.52 141.455 271.183 141.388 271.071 141.635C267.926 149.045 266.668 157.106 267.432 165.1C267.476 165.527 268.15 165.549 268.106 165.1Z" fill="#E8E8E8"/>
<path d="M272.711 143.207C273.497 141.298 274.373 139.412 275.362 137.615C276.193 136.111 277.384 133.079 279.54 133.506C281.719 133.933 282.438 136.829 282.91 138.648C283.427 140.669 283.651 142.757 283.719 144.823C283.854 148.73 283.539 152.66 283.27 156.545C282.977 160.676 282.506 164.808 281.54 168.85C280.484 173.341 278.911 177.675 276.912 181.806C276.732 182.188 277.294 182.547 277.496 182.143C279.473 178.079 281.045 173.812 282.101 169.411C283.202 164.898 283.696 160.295 283.988 155.669C284.28 151.066 284.73 146.35 284.168 141.747C283.831 138.985 283.022 132.922 279.248 132.743C277.271 132.653 276.238 134.719 275.407 136.156C274.126 138.356 273.025 140.647 272.059 143.004C271.902 143.431 272.554 143.611 272.711 143.207Z" fill="#E8E8E8"/>
<path d="M283.786 159.284C284.55 157.757 285.449 156.32 286.527 155.018C287.044 154.389 289.47 151.155 290.436 151.896C290.638 152.054 290.706 152.817 290.75 153.087C290.885 153.648 290.975 154.232 291.02 154.816C291.11 155.714 291.132 156.59 291.087 157.488C290.998 159.396 290.661 161.305 290.189 163.169C288.481 169.973 285.426 176.395 281.45 182.143C281.203 182.502 281.787 182.839 282.034 182.48C286.639 175.856 290.391 167.907 291.537 159.846C291.806 157.937 291.896 156.006 291.627 154.097C291.514 153.266 291.357 150.572 289.987 150.841C289.358 150.976 288.773 151.694 288.324 152.099C287.605 152.772 286.909 153.491 286.28 154.232C285.067 155.669 284.033 157.241 283.202 158.925C283 159.329 283.584 159.666 283.786 159.284Z" fill="#E8E8E8"/>
<path d="M107.165 182.3C104.199 178.91 101.751 175.092 99.9084 170.983C99.8635 171.14 99.8185 171.298 99.7961 171.455C100.695 171.051 101.593 170.893 102.582 170.961C103.009 170.983 103.009 170.31 102.582 170.287C101.481 170.22 100.47 170.422 99.4591 170.871C99.2794 170.961 99.2794 171.185 99.3468 171.342C101.234 175.519 103.705 179.359 106.715 182.794C106.962 183.109 107.457 182.637 107.165 182.3Z" fill="#E8E8E8"/>
<path d="M102.627 170.017C100.852 166.919 99.7287 163.483 99.4142 159.935C99.212 157.69 98.8076 149.651 103.009 151.852C104.491 152.637 105.345 154.322 106.109 155.736C107.007 157.375 107.794 159.082 108.49 160.811C109.748 163.977 110.669 167.278 111.231 170.624C111.905 174.598 112.062 178.64 111.748 182.682C111.703 183.109 112.399 183.109 112.422 182.682C113.051 174.576 111.68 166.38 108.4 158.925C107.592 157.084 106.693 155.197 105.57 153.513C104.761 152.301 103.66 151.111 102.155 150.841C98.5605 150.19 98.6054 155.602 98.6054 157.847C98.6279 162.248 99.8186 166.559 102.02 170.377C102.267 170.714 102.851 170.377 102.627 170.017Z" fill="#E8E8E8"/>
<path d="M110.49 164.359C110.355 162.675 110.849 154.995 114.039 156.612C116.578 157.892 117.117 161.866 117.252 164.381C117.409 167.233 117.296 170.107 117.229 172.959C117.139 175.946 116.915 178.91 115.881 181.739C115.724 182.143 116.375 182.323 116.533 181.919C117.813 178.461 117.881 174.778 117.948 171.14C118.015 167.705 118.307 164.045 117.386 160.676C116.87 158.813 115.027 154.703 112.377 155.938C111.253 156.477 110.759 158.004 110.4 159.105C109.86 160.834 109.681 162.608 109.816 164.404C109.838 164.808 110.512 164.808 110.49 164.359Z" fill="#E8E8E8"/>
<path d="M100.919 151.403C103.817 157.87 106.199 164.539 108.018 171.387C108.131 171.814 108.782 171.634 108.67 171.208C106.828 164.314 104.446 157.578 101.503 151.066C101.324 150.662 100.74 150.998 100.919 151.403Z" fill="#E8E8E8"/>
<path d="M99.0547 160.272C102.492 161.485 105.278 163.977 106.873 167.256C107.075 167.637 107.636 167.301 107.457 166.919C105.772 163.483 102.829 160.901 99.2344 159.621C98.8301 159.486 98.6503 160.137 99.0547 160.272Z" fill="#E8E8E8"/>
<path d="M105.772 154.434C105.165 156.432 104.851 158.476 104.783 160.542C104.761 160.968 105.435 160.968 105.457 160.542C105.525 158.521 105.839 156.545 106.423 154.614C106.536 154.187 105.884 154.007 105.772 154.434Z" fill="#E8E8E8"/>
<path d="M110.31 160.272C112.422 162.742 113.927 165.572 114.825 168.693C114.938 169.119 115.589 168.94 115.477 168.513C114.556 165.28 112.983 162.338 110.804 159.801C110.512 159.464 110.04 159.935 110.31 160.272Z" fill="#E8E8E8"/>
<path d="M113.657 160.093C115.117 167.345 114.87 174.509 114.106 181.829C114.062 182.255 114.735 182.255 114.78 181.829C115.567 174.464 115.791 167.233 114.309 159.913C114.219 159.486 113.567 159.666 113.657 160.093Z" fill="#E8E8E8"/>
<path d="M69.8949 101.71C69.8949 103.304 69.8949 104.899 69.8949 106.515C69.8949 106.942 70.5689 106.942 70.5689 106.515C70.5689 104.921 70.5689 103.327 70.5689 101.71C70.5689 101.283 69.8949 101.283 69.8949 101.71Z" fill="#E8E8E8"/>
<path d="M70.2319 106.964C78.0947 106.964 85.9351 106.964 93.7979 106.964C94.2247 106.964 94.2247 106.291 93.7979 106.291C85.9351 106.291 78.0947 106.291 70.2319 106.291C69.8051 106.291 69.8051 106.964 70.2319 106.964Z" fill="#E8E8E8"/>
<path d="M70.2319 101.98C78.1397 101.98 86.0474 101.98 93.9552 101.98C94.382 101.98 94.382 101.306 93.9552 101.306C86.0474 101.306 78.1397 101.306 70.2319 101.306C69.8051 101.306 69.8051 101.98 70.2319 101.98Z" fill="#E8E8E8"/>
<path d="M93.6182 101.598C93.6182 103.237 93.6182 104.876 93.6182 106.515C93.6182 106.942 94.2921 106.942 94.2921 106.515C94.2921 104.876 94.2921 103.237 94.2921 101.598C94.2921 101.149 93.6182 101.149 93.6182 101.598Z" fill="#E8E8E8"/>
<path d="M78.7686 106.875C78.7686 108.244 78.7686 109.614 78.7686 110.984C78.7686 111.411 79.4426 111.411 79.4426 110.984C79.4426 109.614 79.4426 108.244 79.4426 106.875C79.4426 106.448 78.7686 106.448 78.7686 106.875Z" fill="#E8E8E8"/>
<path d="M79.1506 111.568C85.4184 111.568 91.6862 111.568 97.954 111.568C98.3808 111.568 98.3808 110.894 97.954 110.894C91.6862 110.894 85.4184 110.894 79.1506 110.894C78.7013 110.894 78.7013 111.568 79.1506 111.568Z" fill="#E8E8E8"/>
<path d="M94.0001 107.009C95.3929 107.009 96.7858 107.009 98.2011 107.009C98.6279 107.009 98.6279 106.336 98.2011 106.336C96.8082 106.336 95.4154 106.336 94.0001 106.336C93.5508 106.336 93.5508 107.009 94.0001 107.009Z" fill="#E8E8E8"/>
<path d="M97.8866 106.92C97.8866 108.312 97.8866 109.704 97.8866 111.119C97.8866 111.545 98.5605 111.545 98.5605 111.119C98.5605 109.726 98.5605 108.334 98.5605 106.92C98.5605 106.493 97.8866 106.493 97.8866 106.92Z" fill="#E8E8E8"/>
<path d="M95.7299 111.321C95.7299 112.848 95.7299 114.352 95.7299 115.879C95.7299 116.306 96.4038 116.306 96.4038 115.879C96.4038 114.352 96.4038 112.848 96.4038 111.321C96.4038 110.872 95.7299 110.872 95.7299 111.321Z" fill="#E8E8E8"/>
<path d="M96.1567 116.238C101.324 116.238 106.491 116.238 111.658 116.238C112.085 116.238 112.085 115.565 111.658 115.565C106.491 115.565 101.324 115.565 96.1567 115.565C95.7074 115.565 95.7074 116.238 96.1567 116.238Z" fill="#E8E8E8"/>
<path d="M98.2684 111.613C102.761 111.613 107.255 111.613 111.748 111.613C112.174 111.613 112.174 110.939 111.748 110.939C107.255 110.939 102.761 110.939 98.2684 110.939C97.8416 110.939 97.8416 111.613 98.2684 111.613Z" fill="#E8E8E8"/>
<path d="M111.366 111.231C111.366 112.69 111.366 114.128 111.366 115.587C111.366 116.014 112.04 116.014 112.04 115.587C112.04 114.128 112.04 112.69 112.04 111.231C112.04 110.804 111.366 110.804 111.366 111.231Z" fill="#E8E8E8"/>
<path d="M96.0444 115.542C91.7535 115.542 87.4627 115.542 83.1718 115.542C82.745 115.542 82.745 116.216 83.1718 116.216C87.4627 116.216 91.7535 116.216 96.0444 116.216C96.4712 116.216 96.4712 115.542 96.0444 115.542Z" fill="#E8E8E8"/>
<path d="M83.4414 115.834C83.4414 114.397 83.4414 112.96 83.4414 111.5C83.4414 111.074 82.7675 111.074 82.7675 111.5C82.7675 112.938 82.7675 114.375 82.7675 115.834C82.7675 116.261 83.4414 116.261 83.4414 115.834Z" fill="#E8E8E8"/>
<path d="M55.7418 5.42374C55.7418 21.6586 55.7418 37.8709 55.7418 54.1058C55.7418 54.5324 56.4158 54.5324 56.4158 54.1058C56.4158 37.8709 56.4158 21.6586 56.4158 5.42374C56.4158 4.9971 55.7418 4.9971 55.7418 5.42374Z" fill="#E8E8E8"/>
<path d="M56.0338 54.5999C71.8494 54.5999 87.6649 54.5999 103.48 54.5999C107.951 54.5999 112.444 54.5999 116.915 54.5999C117.341 54.5999 117.341 53.9263 116.915 53.9263C101.099 53.9263 85.2835 53.9263 69.468 53.9263C64.9975 53.9263 60.5044 53.9263 56.0338 53.9263C55.607 53.9263 55.607 54.5999 56.0338 54.5999Z" fill="#E8E8E8"/>
<path d="M56.1911 5.42413C71.8269 5.42413 87.4627 5.42413 103.099 5.42413C107.524 5.42413 111.927 5.42413 116.353 5.42413C116.78 5.42413 116.78 4.75049 116.353 4.75049C100.717 4.75049 85.0814 4.75049 69.4456 4.75049C65.02 4.75049 60.6168 4.75049 56.1911 4.75049C55.7643 4.75049 55.7643 5.42413 56.1911 5.42413Z" fill="#E8E8E8"/>
<path d="M116.712 5.28922C116.712 21.524 116.712 37.7589 116.712 54.0161C116.712 54.4428 117.386 54.4428 117.386 54.0161C117.386 37.7813 117.386 21.5465 117.386 5.28922C117.386 4.86258 116.712 4.86258 116.712 5.28922Z" fill="#E8E8E8"/>
<path d="M59.0667 7.8942C59.0667 22.5572 59.0667 37.2202 59.0667 51.8607C59.0667 52.2873 59.7406 52.2873 59.7406 51.8607C59.7406 37.1977 59.7406 22.5347 59.7406 7.8942C59.7406 7.4451 59.0667 7.4451 59.0667 7.8942Z" fill="#E8E8E8"/>
<path d="M59.3587 52.3321C77.3758 52.3321 95.3929 52.3321 113.388 52.3321C113.814 52.3321 113.814 51.6584 113.388 51.6584C95.3704 51.6584 77.3533 51.6584 59.3587 51.6584C58.9319 51.6584 58.9094 52.3321 59.3587 52.3321Z" fill="#E8E8E8"/>
<path d="M59.4935 7.91657C77.2859 7.91657 95.1009 7.91657 112.893 7.91657C113.32 7.91657 113.32 7.24292 112.893 7.24292C95.1009 7.24292 77.2859 7.24292 59.4935 7.24292C59.0667 7.24292 59.0667 7.91657 59.4935 7.91657Z" fill="#E8E8E8"/>
<path d="M113.163 7.75919C113.163 22.4222 113.163 37.1076 113.163 51.7706C113.163 52.1972 113.837 52.1972 113.837 51.7706C113.837 37.1076 113.837 22.4222 113.837 7.75919C113.837 7.33255 113.163 7.33255 113.163 7.75919Z" fill="#E8E8E8"/>
<path d="M85.5082 7.96133C85.5082 15.1244 85.5082 22.265 85.5082 29.4281C85.5082 29.8548 86.1822 29.8548 86.1822 29.4281C86.1822 22.265 86.1822 15.1244 86.1822 7.96133C86.1822 7.51224 85.5082 7.51224 85.5082 7.96133Z" fill="#E8E8E8"/>
<path d="M85.8452 29.0688C77.2859 29.0688 68.7042 29.0688 60.145 29.0688C59.7181 29.0688 59.7181 29.7425 60.145 29.7425C68.7042 29.7425 77.2859 29.7425 85.8452 29.7425C86.272 29.7425 86.272 29.0688 85.8452 29.0688Z" fill="#E8E8E8"/>
<path d="M88.8555 7.96133C88.8555 15.0571 88.8555 22.1303 88.8555 29.226C88.8555 29.6527 89.5295 29.6527 89.5295 29.226C89.5295 22.1303 89.5295 15.0571 89.5295 7.96133C89.5295 7.51224 88.8555 7.51224 88.8555 7.96133Z" fill="#E8E8E8"/>
<path d="M89.1925 29.9446C97.1003 29.9446 105.008 29.9446 112.916 29.9446C113.343 29.9446 113.343 29.271 112.916 29.271C105.008 29.271 97.1003 29.271 89.1925 29.271C88.7432 29.271 88.7432 29.9446 89.1925 29.9446Z" fill="#E8E8E8"/>
<path d="M59.9428 33.0882C68.547 33.0882 77.1512 33.0882 85.7329 33.0882C86.1597 33.0882 86.1597 32.4146 85.7329 32.4146C77.1287 32.4146 68.5245 32.4146 59.9428 32.4146C59.516 32.4146 59.4935 33.0882 59.9428 33.0882Z" fill="#E8E8E8"/>
<path d="M85.3959 32.8412C85.3959 39.151 85.3959 45.4384 85.3959 51.7482C85.3959 52.1748 86.0698 52.1748 86.0698 51.7482C86.0698 45.4384 86.0698 39.151 86.0698 32.8412C86.0698 32.4146 85.3959 32.4146 85.3959 32.8412Z" fill="#E8E8E8"/>
<path d="M88.7432 33.3354C88.7432 39.4655 88.7432 45.5957 88.7432 51.7483C88.7432 52.1749 89.4172 52.1749 89.4172 51.7483C89.4172 45.6181 89.4172 39.488 89.4172 33.3354C89.4172 32.9087 88.7432 32.9087 88.7432 33.3354Z" fill="#E8E8E8"/>
<path d="M88.9903 33.7842C97.1003 33.7842 105.21 33.7842 113.32 33.7842C113.747 33.7842 113.747 33.1106 113.32 33.1106C105.21 33.1106 97.1003 33.1106 88.9903 33.1106C88.5635 33.1106 88.541 33.7842 88.9903 33.7842Z" fill="#E8E8E8"/>
<path d="M105.794 8.11855C100.74 13.8221 95.9995 19.795 91.5513 25.9926C91.3042 26.3518 91.8883 26.6887 92.1354 26.3294C96.5386 20.1768 101.256 14.2487 106.266 8.5901C106.558 8.27573 106.086 7.78172 105.794 8.11855Z" fill="#E8E8E8"/>
<path d="M105.749 16.4269C103.413 19.2562 101.077 22.0855 98.7403 24.8924C98.4707 25.2292 98.9424 25.7007 99.212 25.3639C101.548 22.5346 103.885 19.7053 106.221 16.8985C106.491 16.5616 106.019 16.0901 105.749 16.4269Z" fill="#E8E8E8"/>
<path d="M62.5263 51.5011C68.4122 45.6179 74.2981 39.7123 80.184 33.8291C80.4985 33.5148 80.0043 33.0432 79.7122 33.3576C73.8263 39.2407 67.9404 45.1464 62.0545 51.0295C61.7625 51.3214 62.2343 51.793 62.5263 51.5011Z" fill="#E8E8E8"/>
<path d="M72.7031 49.4355C74.7025 46.8757 76.8142 44.4506 79.0832 42.1377C79.3977 41.8234 78.9034 41.3518 78.6114 41.6662C76.3424 43.979 74.2082 46.4041 72.2313 48.964C71.9617 49.3008 72.4335 49.7948 72.7031 49.4355Z" fill="#E8E8E8"/>
<path d="M226.073 4.68277C226.073 20.9176 226.073 37.13 226.073 53.3648C226.073 53.7914 226.747 53.7914 226.747 53.3648C226.747 37.13 226.747 20.9176 226.747 4.68277C226.747 4.25613 226.073 4.25613 226.073 4.68277Z" fill="#E8E8E8"/>
<path d="M226.365 53.8589C242.181 53.8589 257.996 53.8589 273.812 53.8589C278.282 53.8589 282.775 53.8589 287.246 53.8589C287.673 53.8589 287.673 53.1853 287.246 53.1853C271.43 53.1853 255.615 53.1853 239.799 53.1853C235.329 53.1853 230.836 53.1853 226.365 53.1853C225.938 53.1853 225.938 53.8589 226.365 53.8589Z" fill="#E8E8E8"/>
<path d="M226.522 4.70538C242.158 4.70538 257.794 4.70538 273.43 4.70538C277.855 4.70538 282.259 4.70538 286.684 4.70538C287.111 4.70538 287.111 4.03174 286.684 4.03174C271.048 4.03174 255.413 4.03174 239.777 4.03174C235.351 4.03174 230.948 4.03174 226.522 4.03174C226.096 4.03174 226.096 4.70538 226.522 4.70538Z" fill="#E8E8E8"/>
<path d="M287.044 4.54825C287.044 20.7831 287.044 37.0179 287.044 53.2752C287.044 53.7018 287.718 53.7018 287.718 53.2752C287.718 37.0403 287.718 20.8055 287.718 4.54825C287.718 4.12161 287.044 4.12161 287.044 4.54825Z" fill="#E8E8E8"/>
<path d="M229.398 7.15274C229.398 21.8157 229.398 36.4787 229.398 51.1192C229.398 51.5459 230.072 51.5459 230.072 51.1192C230.072 36.4563 230.072 21.7933 230.072 7.15274C230.072 6.70364 229.398 6.70364 229.398 7.15274Z" fill="#E8E8E8"/>
<path d="M229.69 51.5909C247.707 51.5909 265.724 51.5909 283.719 51.5909C284.146 51.5909 284.146 50.9172 283.719 50.9172C265.702 50.9172 247.685 50.9172 229.69 50.9172C229.241 50.9172 229.241 51.5909 229.69 51.5909Z" fill="#E8E8E8"/>
<path d="M229.825 7.17561C247.617 7.17561 265.432 7.17561 283.225 7.17561C283.651 7.17561 283.651 6.50195 283.225 6.50195C265.432 6.50195 247.617 6.50195 229.825 6.50195C229.398 6.50195 229.398 7.17561 229.825 7.17561Z" fill="#E8E8E8"/>
<path d="M283.494 7.01822C283.494 21.6812 283.494 36.3666 283.494 51.0296C283.494 51.4563 284.168 51.4563 284.168 51.0296C284.168 36.3666 284.168 21.6812 284.168 7.01822C284.168 6.59158 283.494 6.59158 283.494 7.01822Z" fill="#E8E8E8"/>
<path d="M255.84 7.22037C255.84 14.3834 255.84 21.5241 255.84 28.6871C255.84 29.1138 256.513 29.1138 256.513 28.6871C256.513 21.5241 256.513 14.3834 256.513 7.22037C256.513 6.77127 255.84 6.77127 255.84 7.22037Z" fill="#E8E8E8"/>
<path d="M256.176 28.3276C247.617 28.3276 239.036 28.3276 230.476 28.3276C230.049 28.3276 230.049 29.0013 230.476 29.0013C239.036 29.0013 247.617 29.0013 256.176 29.0013C256.603 29.0013 256.603 28.3276 256.176 28.3276Z" fill="#E8E8E8"/>
<path d="M259.187 7.22037C259.187 14.3161 259.187 21.3893 259.187 28.4851C259.187 28.9117 259.861 28.9117 259.861 28.4851C259.861 21.3893 259.861 14.3161 259.861 7.22037C259.861 6.77127 259.187 6.77127 259.187 7.22037Z" fill="#E8E8E8"/>
<path d="M259.524 29.2034C267.432 29.2034 275.339 29.2034 283.247 29.2034C283.674 29.2034 283.674 28.5298 283.247 28.5298C275.339 28.5298 267.432 28.5298 259.524 28.5298C259.074 28.5298 259.074 29.2034 259.524 29.2034Z" fill="#E8E8E8"/>
<path d="M230.274 32.3472C238.878 32.3472 247.482 32.3472 256.064 32.3472C256.491 32.3472 256.491 31.6736 256.064 31.6736C247.46 31.6736 238.856 31.6736 230.274 31.6736C229.825 31.6736 229.825 32.3472 230.274 32.3472Z" fill="#E8E8E8"/>
<path d="M255.727 32.1227C255.727 38.4325 255.727 44.7199 255.727 51.0297C255.727 51.4563 256.401 51.4563 256.401 51.0297C256.401 44.7199 256.401 38.4325 256.401 32.1227C256.401 31.6736 255.727 31.6736 255.727 32.1227Z" fill="#E8E8E8"/>
<path d="M259.074 32.6166C259.074 38.7468 259.074 44.8769 259.074 51.0295C259.074 51.4562 259.748 51.4562 259.748 51.0295C259.748 44.8994 259.748 38.7692 259.748 32.6166C259.748 32.1675 259.074 32.1675 259.074 32.6166Z" fill="#E8E8E8"/>
<path d="M259.322 33.0433C267.432 33.0433 275.541 33.0433 283.651 33.0433C284.078 33.0433 284.078 32.3696 283.651 32.3696C275.541 32.3696 267.432 32.3696 259.322 32.3696C258.872 32.3696 258.872 33.0433 259.322 33.0433Z" fill="#E8E8E8"/>
<path d="M276.126 7.37735C271.071 13.0809 266.331 19.0539 261.883 25.2514C261.636 25.6107 262.22 25.9475 262.467 25.5882C266.87 19.4356 271.588 13.5075 276.597 7.84891C276.889 7.53454 276.418 7.06299 276.126 7.37735Z" fill="#E8E8E8"/>
<path d="M276.081 15.6857C273.744 18.515 271.408 21.3443 269.072 24.1512C268.802 24.488 269.274 24.9595 269.543 24.6227C271.88 21.7934 274.216 18.9641 276.552 16.1573C276.822 15.8204 276.35 15.3489 276.081 15.6857Z" fill="#E8E8E8"/>
<path d="M232.858 50.7601C238.743 44.8769 244.629 38.9713 250.515 33.0882C250.83 32.7738 250.335 32.3022 250.043 32.6166C244.158 38.4998 238.272 44.4054 232.386 50.2886C232.094 50.5805 232.565 51.052 232.858 50.7601Z" fill="#E8E8E8"/>
<path d="M243.034 48.7168C245.034 46.1569 247.145 43.7318 249.414 41.419C249.729 41.1046 249.235 40.6331 248.943 40.9474C246.674 43.2603 244.539 45.6854 242.563 48.2452C242.293 48.5596 242.765 49.0536 243.034 48.7168Z" fill="#E8E8E8"/>
<path d="M224.86 77.3917C232.79 77.3917 240.743 77.3917 248.673 77.3917C249.1 77.3917 249.1 76.718 248.673 76.718C240.743 76.718 232.79 76.718 224.86 76.718C224.433 76.718 224.433 77.3917 224.86 77.3917Z" fill="#E8E8E8"/>
<path d="M236.497 77.3466C236.497 78.8511 236.497 80.3331 236.497 81.8376C236.497 82.2642 237.171 82.2642 237.171 81.8376C237.171 80.3331 237.171 78.8511 237.171 77.3466C237.171 76.92 236.497 76.92 236.497 77.3466Z" fill="#E8E8E8"/>
<path d="M236.834 82.1746C243.079 82.1746 249.325 82.1746 255.547 82.1746C255.974 82.1746 255.974 81.501 255.547 81.501C249.302 81.501 243.057 81.501 236.834 81.501C236.407 81.501 236.407 82.1746 236.834 82.1746Z" fill="#E8E8E8"/>
<path d="M248.628 77.1894C248.628 78.6265 248.628 80.086 248.628 81.5231C248.628 81.9498 249.302 81.9498 249.302 81.5231C249.302 80.086 249.302 78.6265 249.302 77.1894C249.302 76.7627 248.628 76.7627 248.628 77.1894Z" fill="#E8E8E8"/>
<path d="M225.197 76.8974C225.197 75.7073 225.197 74.4947 225.197 73.3046C225.197 72.878 224.523 72.878 224.523 73.3046C224.523 74.4947 224.523 75.7073 224.523 76.8974C224.523 77.324 225.197 77.324 225.197 76.8974Z" fill="#E8E8E8"/>
<path d="M225.152 73.4842C230.948 73.4842 236.744 73.4842 242.518 73.4842C242.944 73.4842 242.944 72.8105 242.518 72.8105C236.722 72.8105 230.926 72.8105 225.152 72.8105C224.725 72.8105 224.725 73.4842 225.152 73.4842Z" fill="#E8E8E8"/>
<path d="M242.338 73.5968C242.338 74.742 242.338 75.8872 242.338 77.0324C242.338 77.4591 243.012 77.4591 243.012 77.0324C243.012 75.8872 243.012 74.742 243.012 73.5968C243.012 73.1702 242.338 73.1702 242.338 73.5968Z" fill="#E8E8E8"/>
<path d="M221.266 82.3318C226.814 82.3318 232.341 82.3318 237.89 82.3318C238.317 82.3318 238.317 81.6582 237.89 81.6582C232.341 81.6582 226.814 81.6582 221.266 81.6582C220.839 81.6582 220.839 82.3318 221.266 82.3318Z" fill="#E8E8E8"/>
<path d="M220.771 82.2868C220.771 83.5443 220.771 84.7793 220.771 86.0367C220.771 86.4634 221.445 86.4634 221.445 86.0367C221.445 84.7793 221.445 83.5443 221.445 82.2868C221.445 81.8601 220.771 81.8601 220.771 82.2868Z" fill="#E8E8E8"/>
<path d="M221.108 86.6653C226.41 86.6653 231.689 86.6653 236.991 86.6653C237.418 86.6653 237.418 85.9917 236.991 85.9917C231.689 85.9917 226.41 85.9917 221.108 85.9917C220.681 85.9917 220.681 86.6653 221.108 86.6653Z" fill="#E8E8E8"/>
<path d="M236.654 82.2868C236.654 83.5892 236.654 84.8915 236.654 86.1715C236.654 86.5981 237.328 86.5981 237.328 86.1715C237.328 84.8691 237.328 83.5667 237.328 82.2868C237.328 81.8601 236.654 81.8601 236.654 82.2868Z" fill="#E8E8E8"/>
<path d="M110.018 67.4888C119.813 67.4888 129.585 67.4888 139.38 67.4888C139.807 67.4888 139.807 66.8152 139.38 66.8152C129.585 66.8152 119.813 66.8152 110.018 66.8152C109.591 66.8152 109.591 67.4888 110.018 67.4888Z" fill="#E8E8E8"/>
<path d="M110.22 67.1522C110.22 65.8947 110.22 64.6373 110.22 63.3798C110.22 62.9532 109.546 62.9532 109.546 63.3798C109.546 64.6373 109.546 65.8947 109.546 67.1522C109.546 67.5789 110.22 67.5789 110.22 67.1522Z" fill="#E8E8E8"/>
<path d="M110.265 63.3123C115.499 63.3123 120.756 63.3123 125.991 63.3123C126.417 63.3123 126.417 62.6387 125.991 62.6387C120.756 62.6387 115.499 62.6387 110.265 62.6387C109.838 62.6387 109.838 63.3123 110.265 63.3123Z" fill="#E8E8E8"/>
<path d="M125.654 63.3798C125.654 64.5924 125.654 65.8049 125.654 67.0175C125.654 67.4441 126.328 67.4441 126.328 67.0175C126.328 65.8049 126.328 64.5924 126.328 63.3798C126.328 62.9307 125.654 62.9307 125.654 63.3798Z" fill="#E8E8E8"/>
<path d="M121.363 67.6686C121.363 68.9261 121.363 70.1836 121.363 71.441C121.363 71.8677 122.037 71.8677 122.037 71.441C122.037 70.1836 122.037 68.9261 122.037 67.6686C122.037 67.2195 121.363 67.2195 121.363 67.6686Z" fill="#E8E8E8"/>
<path d="M121.834 72.0247C127.541 72.0247 133.269 72.0247 138.975 72.0247C139.402 72.0247 139.402 71.3511 138.975 71.3511C133.269 71.3511 127.541 71.3511 121.834 71.3511C121.408 71.3511 121.408 72.0247 121.834 72.0247Z" fill="#E8E8E8"/>
<path d="M139.043 67.5338C139.043 68.971 139.043 70.3856 139.043 71.8227C139.043 72.2494 139.717 72.2494 139.717 71.8227C139.717 70.3856 139.717 68.971 139.717 67.5338C139.717 67.1072 139.043 67.1072 139.043 67.5338Z" fill="#E8E8E8"/>
<path d="M125.519 71.935C125.519 73.1026 125.519 74.2703 125.519 75.4379C125.519 75.8646 126.193 75.8646 126.193 75.4379C126.193 74.2703 126.193 73.1026 126.193 71.935C126.193 71.5083 125.519 71.5083 125.519 71.935Z" fill="#E8E8E8"/>
<path d="M125.609 75.3706C120.621 75.3706 115.657 75.3706 110.669 75.3706C110.242 75.3706 110.242 76.0443 110.669 76.0443C115.657 76.0443 120.621 76.0443 125.609 76.0443C126.035 76.0443 126.035 75.3706 125.609 75.3706Z" fill="#E8E8E8"/>
<path d="M122.486 71.4858C118.577 71.4858 114.691 71.4858 110.782 71.4858C110.355 71.4858 110.355 72.1595 110.782 72.1595C114.691 72.1595 118.577 72.1595 122.486 72.1595C122.913 72.1595 122.913 71.4858 122.486 71.4858Z" fill="#E8E8E8"/>
<path d="M110.467 71.8227C110.467 73.0801 110.467 74.3376 110.467 75.5951C110.467 76.0217 111.141 76.0217 111.141 75.5951C111.141 74.3376 111.141 73.0801 111.141 71.8227C111.141 71.3736 110.467 71.3736 110.467 71.8227Z" fill="#E8E8E8"/>
<path d="M265.837 122.548C272.014 122.548 278.192 122.548 284.37 122.548C284.797 122.548 284.797 121.875 284.37 121.875C278.192 121.875 272.014 121.875 265.837 121.875C265.41 121.875 265.41 122.548 265.837 122.548Z" fill="#E8E8E8"/>
<path d="M276.867 122.032C276.867 120.64 276.867 119.247 276.867 117.855C276.867 117.428 276.193 117.428 276.193 117.855C276.193 119.247 276.193 120.64 276.193 122.032C276.193 122.458 276.867 122.458 276.867 122.032Z" fill="#E8E8E8"/>
<path d="M276.71 118.102C281.989 118.102 287.268 118.102 292.57 118.102C292.997 118.102 292.997 117.428 292.57 117.428C287.291 117.428 282.011 117.428 276.71 117.428C276.26 117.428 276.26 118.102 276.71 118.102Z" fill="#E8E8E8"/>
<path d="M292.211 117.945C292.211 119.135 292.211 120.325 292.211 121.515C292.211 121.942 292.885 121.942 292.885 121.515C292.885 120.325 292.885 119.135 292.885 117.945C292.885 117.496 292.211 117.496 292.211 117.945Z" fill="#E8E8E8"/>
<path d="M283.921 122.458C286.707 122.458 289.492 122.458 292.3 122.458C292.727 122.458 292.727 121.785 292.3 121.785C289.515 121.785 286.729 121.785 283.921 121.785C283.472 121.785 283.472 122.458 283.921 122.458Z" fill="#E8E8E8"/>
<path d="M265.14 122.571C265.14 123.648 265.14 124.704 265.14 125.782C265.14 126.208 265.814 126.208 265.814 125.782C265.814 124.704 265.814 123.648 265.814 122.571C265.814 122.144 265.14 122.122 265.14 122.571Z" fill="#E8E8E8"/>
<path d="M265.567 126.455C271.408 126.455 277.271 126.455 283.112 126.455C283.539 126.455 283.539 125.782 283.112 125.782C277.271 125.782 271.408 125.782 265.567 125.782C265.14 125.782 265.14 126.455 265.567 126.455Z" fill="#E8E8E8"/>
<path d="M282.955 122.301C282.955 123.514 282.955 124.726 282.955 125.961C282.955 126.388 283.629 126.388 283.629 125.961C283.629 124.749 283.629 123.536 283.629 122.301C283.629 121.875 282.955 121.875 282.955 122.301Z" fill="#E8E8E8"/>
<path d="M267.611 112.668C273.272 112.668 278.956 112.668 284.617 112.668C285.044 112.668 285.044 111.994 284.617 111.994C278.956 111.994 273.272 111.994 267.611 111.994C267.184 111.994 267.184 112.668 267.611 112.668Z" fill="#E8E8E8"/>
<path d="M284.28 112.601C284.28 114.33 284.28 116.036 284.28 117.765C284.28 118.192 284.954 118.192 284.954 117.765C284.954 116.036 284.954 114.33 284.954 112.601C284.954 112.152 284.28 112.152 284.28 112.601Z" fill="#E8E8E8"/>
<path d="M267.454 112.421C267.454 114.015 267.454 115.632 267.454 117.226C267.454 117.653 268.128 117.653 268.128 117.226C268.128 115.632 268.128 114.015 268.128 112.421C268.128 111.994 267.454 111.994 267.454 112.421Z" fill="#E8E8E8"/>
<path d="M268.24 117.922C272.239 117.922 276.26 117.922 280.259 117.922C280.686 117.922 280.686 117.249 280.259 117.249C276.26 117.249 272.239 117.249 268.24 117.249C267.813 117.249 267.813 117.922 268.24 117.922Z" fill="#E8E8E8"/>
<path d="M80.5434 183.019C84.2277 183.019 87.912 183.019 91.5963 183.019C92.0231 183.019 92.0231 182.345 91.5963 182.345C87.912 182.345 84.2277 182.345 80.5434 182.345C80.1166 182.345 80.1166 183.019 80.5434 183.019Z" fill="#161616"/>
<path d="M52.2148 183.064C84.3625 183.064 116.488 183.064 148.636 183.064C180.604 183.064 212.594 183.064 244.562 183.064C262.602 183.064 280.641 183.064 298.681 183.064C299.557 183.064 299.557 181.717 298.681 181.717C266.533 181.717 234.408 181.717 202.26 181.717C170.292 181.717 138.302 181.717 106.334 181.717C88.294 181.717 70.2544 181.717 52.2148 181.717C51.3387 181.717 51.3387 183.064 52.2148 183.064Z" fill="#161616"/>
<path d="M255.615 187.6C271.206 187.6 286.774 187.6 302.365 187.6C303.241 187.6 303.241 186.252 302.365 186.252C286.774 186.252 271.206 186.252 255.615 186.252C254.761 186.252 254.761 187.6 255.615 187.6Z" fill="#161616"/>
<path d="M95.2806 204.576C112.759 204.576 130.214 204.576 147.692 204.576C148.568 204.576 148.568 203.228 147.692 203.228C130.214 203.228 112.759 203.228 95.2806 203.228C94.4045 203.228 94.4045 204.576 95.2806 204.576Z" fill="#161616"/>
<path d="M0.657108 197.996C12.3166 197.996 23.976 197.996 35.6355 197.996C36.5116 197.996 36.5116 196.649 35.6355 196.649C23.976 196.649 12.3166 196.649 0.657108 196.649C-0.219036 196.649 -0.219036 197.996 0.657108 197.996Z" fill="#161616"/>
<path d="M43.0041 191.866C55.7868 191.866 68.5695 191.866 81.3522 191.866C82.2283 191.866 82.2283 190.519 81.3522 190.519C68.5695 190.519 55.7868 190.519 43.0041 190.519C42.1279 190.519 42.1279 191.866 43.0041 191.866Z" fill="#161616"/>
<path d="M34.7818 173.678C52.035 164.224 68.502 153.379 84.6096 142.084C100.74 130.767 116.578 119 132.685 107.638C141.716 101.284 150.837 95.0411 160.138 89.0906C160.497 88.8661 160.16 88.2823 159.801 88.5068C143.199 99.1279 127.204 110.647 111.231 122.189C95.2806 133.731 79.3303 145.317 62.8183 156.028C53.5627 162.024 44.1498 167.772 34.4672 173.072C34.0629 173.296 34.3998 173.88 34.7818 173.678Z" fill="#161616"/>
<path d="M22.2911 169.052C20.9432 169.793 20.0446 170.758 19.5728 171.275C18.8539 172.061 18.3597 172.577 17.9778 173.363C17.3937 174.621 17.4611 176.035 17.6408 178.82C17.7756 180.886 17.9104 180.683 17.8205 181.155C17.3263 183.715 14.5181 184.186 14.5855 185.915C14.6304 186.993 15.7088 187.869 16.6298 188.183C18.0452 188.677 19.7525 188.049 20.7634 186.589C19.6851 187.128 18.1126 188.161 17.1241 190.002C16.7646 190.676 16.2929 191.552 16.6074 191.978C17.1465 192.719 19.5953 191.844 21.7744 190.9C21.6621 191.417 21.6396 192.046 21.999 192.495C22.8752 193.595 25.4587 192.719 26.1326 192.495C26.8964 192.225 27.0088 192.091 30.446 189.935C32.2432 188.812 32.8722 188.43 33.9056 187.667C34.7817 187.016 35.4557 186.454 35.9499 186.028C37.5674 186.073 39.5219 185.983 41.6786 185.579C45.7448 184.793 48.8674 183.198 50.8668 181.941C51.0241 182.592 51.1589 183.266 51.3161 183.917C49.3617 185.13 47.8565 186.028 46.8231 186.634C46.1716 187.016 45.4976 187.42 45.565 187.712C45.6774 188.138 47.205 188.116 48.171 188.116C49.2493 188.116 50.1479 187.981 50.777 187.891C50.8219 188.049 50.9792 188.475 51.406 188.677C52.035 189.014 52.8438 188.632 52.8213 188.565C52.8213 188.52 52.4843 188.52 52.4843 188.498C52.4843 188.453 54.933 188.453 56.6179 188.318C58.0332 188.206 60.1 187.936 62.6386 187.128C63.0654 185.399 63.1553 184.052 63.1553 183.109C63.1553 182.413 63.1104 182.053 63.2227 181.357C63.4249 179.987 63.8517 179.538 64.0764 178.528C64.2336 177.854 64.2786 176.844 63.8517 175.519C64.5931 175.227 65.0873 174.823 65.3794 174.553C65.4468 174.486 66.9744 173.004 66.7947 170.983C66.7497 170.556 66.7048 169.995 66.3454 169.793C65.7613 169.479 64.7503 170.287 64.2561 170.871C63.38 171.881 63.335 173.139 63.3575 173.7C62.7509 172.757 61.5378 171.14 59.4485 170.13C58.6173 169.726 57.7861 169.479 56.8875 169.344C52.664 168.625 47.6992 170.085 44.5766 171.208C40.4879 172.69 38.5334 173.97 36.0173 173.543C35.2535 173.408 33.5911 173.116 32.4454 171.836C31.9961 171.342 31.9511 171.05 31.367 170.354C31.1648 170.107 30.109 168.872 28.7611 168.266C26.0203 167.009 22.9201 168.715 22.2911 169.052Z" fill="white"/>
<path d="M33.7934 173.116C33.2767 174.306 32.5578 175.384 31.6592 176.35C31.3671 176.664 31.8389 177.136 32.1309 176.821C33.0745 175.833 33.8158 174.711 34.355 173.453C34.5572 173.049 33.9731 172.712 33.7934 173.116Z" fill="#5EA8FF"/>
<path d="M34.1078 173.386C33.5911 174.823 32.8048 176.08 31.749 177.158C31.4569 177.473 31.9287 177.944 32.2207 177.63C33.3665 176.462 34.1977 175.092 34.7593 173.565C34.8941 173.161 34.2426 172.982 34.1078 173.386Z" fill="#3190FF"/>
<path d="M23.0325 174.329C23.4593 177.068 23.8637 179.898 25.1891 182.39C26.1327 184.186 28.1096 185.893 30.2213 184.793C32.3106 183.692 32.6026 180.998 32.4679 178.887C32.3106 176.574 31.5018 174.351 29.817 172.712C29.5024 172.42 29.0307 172.892 29.3452 173.184C30.7605 174.576 31.5243 176.417 31.749 178.371C31.9736 180.369 31.9062 183.266 29.7945 184.254C27.2335 185.421 25.6384 182.053 25.0094 180.167C24.3354 178.213 24.0209 176.192 23.7289 174.149C23.6166 173.722 22.9651 173.902 23.0325 174.329Z" fill="#161616"/>
<path d="M22.1788 168.693C19.6402 170.467 17.3263 172.757 16.9893 175.99C16.9219 176.754 16.9669 177.517 17.1466 178.236C17.4162 179.291 18.0003 180.167 17.3712 181.245C16.3828 182.951 14.9675 184.546 13.7993 186.14C13.5522 186.499 14.1362 186.836 14.3834 186.477C15.4842 184.972 16.6299 183.49 17.6858 181.963C18.5844 180.683 18.3372 179.83 17.9104 178.393C16.6973 174.508 19.5953 171.297 22.5382 169.254C22.8752 169.029 22.5382 168.446 22.1788 168.693Z" fill="#161616"/>
<path d="M13.7768 186.724C14.7203 187.577 15.7537 188.498 17.0792 188.633C18.2923 188.745 19.4605 188.094 20.404 187.42C22.5382 185.916 24.0659 183.782 25.0543 181.38C25.2116 180.975 24.5601 180.796 24.4028 181.2C23.6165 183.131 22.4034 184.905 20.8084 186.252C19.9098 186.993 18.7416 187.892 17.5285 187.959C16.203 188.049 15.1472 187.061 14.2486 186.23C13.934 185.96 13.4623 186.432 13.7768 186.724Z" fill="#161616"/>
<path d="M18.0901 178.775C18.4271 179.404 18.809 179.988 19.2808 180.504C19.5729 180.841 20.0446 180.347 19.7526 180.032C19.3257 179.538 18.9663 179 18.6742 178.438C18.4496 178.056 17.888 178.393 18.0901 178.775Z" fill="#161616"/>
<path d="M14.8102 185.534C15.2595 186.05 15.3943 186.701 15.3269 187.353C15.282 187.779 15.9559 187.779 16.0009 187.353C16.0907 186.522 15.8436 185.691 15.282 185.062C14.9899 184.748 14.5182 185.219 14.8102 185.534Z" fill="#161616"/>
<path d="M14.2036 186.522C14.4732 186.724 14.7203 186.948 14.9899 187.151C15.2595 187.375 15.7537 187.083 15.5291 186.746C15.3493 186.477 15.237 186.163 15.237 185.826C15.0348 185.893 14.8102 185.938 14.608 186.005C14.6754 186.095 14.7428 186.185 14.7877 186.275C15.0348 186.634 15.6189 186.297 15.3718 185.938C15.3044 185.848 15.237 185.758 15.1921 185.669C15.0124 185.422 14.5631 185.489 14.5631 185.848C14.5631 186.297 14.6979 186.724 14.945 187.106C15.1247 186.971 15.3044 186.836 15.4841 186.701C15.2146 186.499 14.9674 186.275 14.6979 186.073C14.5631 185.96 14.3609 185.938 14.2261 186.073C14.0913 186.163 14.0688 186.41 14.2036 186.522Z" fill="#161616"/>
<path d="M27.548 168.199C29.48 168.67 30.783 170.152 31.9511 171.657C33.0744 173.071 33.8382 173.835 35.7253 173.723C39.6343 173.476 43.3635 171.994 47.0702 170.871C50.8893 169.726 55.7194 168.468 59.4935 170.399C63.4025 172.398 64.8627 177.203 62.9082 181.088C62.706 181.469 63.2901 181.806 63.4923 181.425C66.3005 175.811 62.5712 169.501 56.4607 168.85C49.4516 168.109 43.1164 172.263 36.2869 172.982C35.0064 173.116 33.9281 173.049 33.0295 171.971C32.4903 171.32 31.9961 170.624 31.4345 169.995C30.4011 168.85 29.2104 167.907 27.6828 167.525C27.3008 167.435 27.1211 168.086 27.548 168.199Z" fill="#161616"/>
<path d="M56.2361 174.621C54.4838 176.013 53.2032 177.832 53.338 180.167C53.4728 182.233 54.7084 184.007 56.5506 184.95C56.9325 185.152 57.2695 184.568 56.8875 184.366C55.1577 183.468 53.9895 181.784 54.012 179.785C54.0345 177.764 55.2027 176.282 56.7078 175.092C57.0448 174.845 56.573 174.351 56.2361 174.621Z" fill="#161616"/>
<path d="M56.5955 184.77C55.3374 185.152 54.1019 185.601 52.8887 186.14C52.2148 186.454 50.5524 186.904 50.3277 187.734C49.8559 189.486 54.2142 188.79 54.8657 188.745C56.1687 188.655 57.4716 188.52 58.7746 188.318C59.9203 188.139 61.4704 188.116 62.5038 187.555C63.2901 187.151 63.2227 186.275 63.2677 185.489C63.38 183.939 63.5148 182.413 63.6271 180.863C63.672 180.437 62.9981 180.437 62.9531 180.863C62.8857 181.851 62.7959 182.817 62.7285 183.805C62.6611 184.703 62.8633 186.499 61.9871 187.016C61.3806 187.375 60.3247 187.375 59.6283 187.487C58.5275 187.667 57.4492 187.824 56.3259 187.936C55.4048 188.026 54.4838 188.094 53.5627 188.116C53.0685 188.139 52.5742 188.183 52.08 188.161C51.6532 188.139 50.9343 188.296 51.2263 187.689C51.3611 187.442 52.2148 187.151 52.4844 187.038C53.0011 186.791 53.5402 186.544 54.0794 186.32C54.9555 185.96 55.8541 185.669 56.7528 185.399C57.2021 185.287 57.0223 184.636 56.5955 184.77Z" fill="#161616"/>
<path d="M31.9063 180.167C32.0635 183.917 28.9858 186.432 25.9754 188.049C24.6949 188.722 19.8649 190.249 21.5722 192.54C23.0774 194.561 26.7842 192.472 28.4241 191.597C31.2548 190.092 33.7259 188.049 36.1971 186.005C36.5341 185.736 36.0623 185.264 35.7253 185.534C33.5911 187.285 31.4569 189.059 29.0756 190.451C27.8625 191.17 26.582 191.799 25.2341 192.248C24.4703 192.495 23.4593 192.899 22.6955 192.517C21.1229 191.754 22.4259 190.609 23.3245 190.115C27.3683 187.981 32.8273 185.601 32.5802 180.145C32.5577 179.74 31.8838 179.74 31.9063 180.167Z" fill="#161616"/>
<path d="M18.7866 178.797C18.8989 178.034 19.3033 177.338 19.9997 176.979C20.3816 176.776 20.0446 176.193 19.6627 176.395C18.809 176.844 18.2699 177.697 18.1351 178.618C18.0677 179.044 18.7192 179.224 18.7866 178.797Z" fill="#161616"/>
<path d="M21.5947 185.219C21.2352 185.893 20.5613 186.275 19.9772 186.746C19.3706 187.24 18.7865 187.779 18.2249 188.341C17.5509 189.037 16.0458 190.249 15.9784 191.305C15.8211 193.909 20.6736 191.664 21.5947 191.372C21.9991 191.237 21.8193 190.586 21.415 190.721C20.404 191.058 19.4156 191.417 18.3822 191.709C18.0901 191.821 17.7756 191.888 17.4835 191.911C16.9219 191.26 16.8995 190.698 17.3712 190.272C17.5959 189.89 18.0002 189.553 18.2923 189.239C18.9663 188.52 19.6851 187.847 20.449 187.218C21.078 186.701 21.7744 186.297 22.1563 185.556C22.381 185.174 21.7969 184.838 21.5947 185.219Z" fill="#161616"/>
<path d="M36.1297 186.252C42.4424 186.275 48.6428 184.321 53.7873 180.661C54.1468 180.414 53.8098 179.83 53.4503 180.077C48.3957 183.67 42.3525 185.601 36.1297 185.579C35.7028 185.556 35.7028 186.23 36.1297 186.252Z" fill="#161616"/>
<path d="M50.3052 182.255C50.44 182.637 50.5523 182.996 50.6871 183.378C50.8893 183.939 51.069 184.119 50.5074 184.456C49.811 184.883 48.9798 185.197 48.2384 185.556C47.4746 185.916 46.7108 186.252 45.9694 186.657C45.61 186.836 45.273 187.038 45.1158 187.42C44.307 189.576 49.6088 188.363 50.3951 188.116C50.7995 187.981 50.6197 187.33 50.2154 187.465C49.6088 187.667 48.9798 187.824 48.3508 187.892C47.9464 187.936 46.8231 188.183 46.4188 187.959C45.3404 187.353 47.0702 186.859 47.4297 186.679C47.9913 186.41 48.5529 186.118 49.137 185.848C49.7661 185.534 51.2937 185.174 51.5857 184.478C51.8553 183.85 51.1364 182.637 50.9342 182.053C50.8219 181.672 50.1704 181.851 50.3052 182.255Z" fill="#161616"/>
<path d="M63.672 173.61C63.6496 172.734 63.8068 171.904 64.2786 171.14C64.4808 170.826 64.7728 170.399 65.1323 170.242C67.0194 169.456 66.6824 171.23 66.5251 171.859C66.1208 173.296 64.9975 174.464 63.7619 175.227C63.38 175.452 63.7394 176.035 64.0989 175.811C65.312 175.092 66.3005 174.059 66.907 172.757C67.2889 171.904 67.6709 170.646 66.9295 169.883C66.2555 169.187 65.1772 169.366 64.4808 169.905C63.38 170.758 62.9756 172.285 63.0206 173.633C63.0206 174.037 63.6945 174.059 63.672 173.61Z" fill="#161616"/>
<path d="M22.4034 169.456C23.8861 168.468 26.245 167.458 27.9748 168.356C28.3567 168.558 28.6937 167.974 28.3118 167.772C26.3348 166.739 23.7738 167.75 22.0665 168.872C21.707 169.097 22.044 169.681 22.4034 169.456Z" fill="#161616"/>
<path opacity="0.09" d="M29.8619 172.667C30.5358 172.937 32.2432 173.7 33.4563 175.541C33.973 176.327 35.2535 178.281 34.5346 180.482C33.8832 182.458 32.041 183.333 31.6142 183.513C31.9062 182.884 32.3106 181.874 32.4004 180.594C32.5128 178.977 32.1084 177.764 31.6591 176.44C31.3446 175.474 30.8054 174.149 29.8619 172.667Z" fill="#6D6C6C"/>
<path opacity="0.13" d="M23.1223 179.695C22.4933 182.143 21.3251 183.737 20.6961 184.591C19.3931 186.364 17.9329 187.555 16.8096 188.296C17.6633 188.183 18.8989 187.869 20.1794 187.105C20.5388 186.881 22.1563 185.915 23.3919 183.894C24.0659 182.794 24.4028 181.784 24.5826 181.088C24.2007 178.977 23.8412 176.866 23.4593 174.733C23.5941 175.833 23.6615 177.607 23.1223 179.695Z" fill="#6D6C6C"/>
<path opacity="0.07" d="M61.9872 172.061C62.1893 173.116 62.414 174.755 62.0995 176.731C61.5603 180.234 59.7182 182.525 58.887 183.535C56.2585 186.746 53.0011 188.026 51.4734 188.543C55.0229 188.43 57.8985 188.116 60.0102 187.802C61.448 187.599 62.3691 187.42 62.9307 186.679C63.8742 185.421 62.751 184.074 63.2677 181.065C63.6047 179.022 64.2112 178.887 64.2786 177.405C64.346 176.058 63.9416 174.261 61.9872 172.061Z" fill="#6D6C6C"/>
<path opacity="0.14" d="M50.8219 182.323C50.9792 182.57 51.4959 183.401 51.2263 184.187C51.1589 184.366 50.9792 184.77 49.9233 185.309C48.1261 186.252 47.1152 185.871 46.2615 186.836C46.1941 186.904 45.61 187.577 45.8122 188.026C46.0144 188.453 46.913 188.408 47.6768 188.363C48.4182 188.318 49.474 188.161 50.7096 187.689C51.4285 187.218 52.3046 186.701 53.3605 186.23C54.5287 185.713 55.607 185.377 56.5056 185.152C56.4158 184.86 56.2136 184.434 55.8766 183.962C55.2701 183.154 54.7084 183.041 54.1917 182.323C53.9671 182.008 53.675 181.492 53.5627 180.684C52.6416 181.245 51.7205 181.784 50.8219 182.323Z" fill="#6D6C6C"/>
<path opacity="0.25" d="M66.3679 169.973C66.3229 170.556 66.1881 171.432 65.8062 172.398C65.1323 174.127 64.1213 175.047 64.2786 175.205C64.4134 175.339 65.4019 174.733 66.0309 173.857C66.5476 173.116 66.6824 172.398 66.7048 172.173C66.8621 171.118 66.5251 170.287 66.3679 169.973Z" fill="#6D6C6C"/>
<path d="M207.023 167.435C212.1 172.196 217.154 176.979 222.232 181.739C216.301 193.797 213.919 200.174 215.088 200.893C216.525 201.791 223.49 193.865 236.003 177.068C227.376 170.781 218.749 164.494 210.123 158.184C209.089 161.283 208.056 164.359 207.023 167.435Z" fill="#191919"/>
<path d="M185.276 97.9151C183.389 100.789 184.467 103.417 185.546 113.342C186.647 123.401 185.726 122.346 186.624 129.307C188.152 141.073 191.522 149.584 194.217 156.253C194.217 156.253 198.014 165.706 205.45 174.396C205.652 174.643 206.124 175.137 206.798 175.609C207.472 176.08 208.91 177.068 210.595 176.821C212.369 176.574 213.717 175.07 214.256 173.7C214.863 172.151 214.144 171.432 214.93 170.175C215.514 169.277 216.031 169.411 217.514 168.288C218.547 167.48 219.873 166.47 220.502 164.763C221.198 162.832 220.659 161.08 220.502 160.564C220.03 159.082 219.131 158.139 218.884 157.847C217.783 156.657 216.076 153.311 212.661 146.62C210.01 141.455 205.854 129.756 204.529 115.093C203.361 102.069 205.383 97.466 201.676 94.6592C197.295 91.3359 188.399 93.1547 185.276 97.9151Z" fill="white"/>
<path d="M203.54 102.676C203.338 110.49 204.304 118.282 205.989 125.916C207.629 133.326 209.741 140.804 212.661 147.81C214.144 151.403 215.986 154.838 218.39 157.892C218.66 158.229 219.131 157.757 218.862 157.421C214.369 151.762 212.032 144.778 209.921 137.975C207.629 130.632 205.809 123.132 204.866 115.475C204.349 111.231 204.125 106.942 204.237 102.676C204.237 102.227 203.563 102.227 203.54 102.676Z" fill="#161616"/>
<path d="M185.366 112.601C185.411 124.614 187.006 136.695 190.758 148.147C192.6 153.76 194.959 159.239 197.902 164.359C199.384 166.964 201.024 169.501 202.822 171.926C204.327 173.97 206.101 176.238 208.707 176.889C211.111 177.495 213.515 176.53 214.459 174.172C215.425 171.724 214.773 168.536 216.795 166.56C217.109 166.245 216.638 165.774 216.323 166.088C214.773 167.593 214.683 169.771 214.369 171.769C214.211 172.757 214.032 173.79 213.493 174.643C212.594 176.125 210.864 176.619 209.224 176.305C206.281 175.744 204.372 172.937 202.754 170.669C201.159 168.423 199.676 166.088 198.306 163.685C192.757 153.85 189.32 142.915 187.545 131.777C186.534 125.445 186.063 119.023 186.04 112.601C186.04 112.152 185.366 112.152 185.366 112.601Z" fill="#161616"/>
<path d="M217.851 157.263C219.67 159.419 221.086 162.226 220.12 165.078C219.626 166.582 218.502 167.144 217.267 167.929C216.188 168.626 215.29 169.546 214.548 170.602C214.301 170.961 214.885 171.298 215.133 170.938C215.762 170.085 216.48 169.277 217.357 168.67C217.918 168.289 218.547 167.997 219.109 167.593C220.165 166.829 220.749 165.639 220.973 164.382C221.468 161.507 220.12 158.925 218.323 156.769C218.053 156.455 217.581 156.949 217.851 157.263Z" fill="#161616"/>
<path opacity="0.16" d="M185.793 112.084C185.748 115.048 185.838 118.147 186.062 121.403C186.871 132.877 189.32 142.825 192.128 150.953C192.128 150.953 195.655 161.036 200.35 168.086C200.867 168.85 201.856 170.13 203.855 172.667C205.922 175.317 206.528 175.968 207.629 176.44C207.786 176.507 210.595 177.675 212.482 176.305C212.998 175.946 213.403 175.07 214.234 173.341C215.088 171.567 215.514 170.624 215.717 169.299C216.817 169.254 217.626 168.648 217.738 167.952C217.873 167.098 216.885 166.38 216.795 166.335C215.447 165.414 213.582 166.178 212.751 166.335C208.64 167.076 203.496 157.286 201.945 154.322C195.543 141.904 192.33 135.707 190.061 128.836C188.736 124.592 187.096 118.933 185.793 112.084Z" fill="#6D6C6C"/>
<path opacity="0.13" d="M188.758 138.266C188.961 138.199 189.32 139.21 192.802 146.215C199.587 159.846 201.204 161.822 202.934 163.348C205.001 165.19 208.707 167.705 215.088 168.738C215.155 169.142 215.964 173.588 213.335 175.609C212.19 176.507 210.864 176.552 210.505 176.552C206.438 176.687 202.215 171.14 198.486 164.539C191.229 151.694 188.017 138.513 188.758 138.266Z" fill="#6D6C6C"/>
<path d="M157.577 168.828C154.566 175.115 151.578 181.38 148.568 187.667C135.291 185.691 128.462 185.377 128.125 186.702C127.698 188.341 137.403 192.562 157.195 199.344C160.564 189.217 163.934 179.089 167.282 168.94C164.069 168.917 160.834 168.873 157.577 168.828Z" fill="#191919"/>
<path d="M184.288 95.8497C181.974 97.8257 181.3 99.9365 179.435 104.248C176.56 110.872 173.302 117.339 170.382 123.963C164.563 137.167 162.676 140.086 158.273 150.46C155.735 156.433 155.757 156.859 154.387 159.352C152.971 161.912 151.511 164.067 150.5 167.75C149.894 169.951 149.759 171.59 150.343 173.251C150.568 173.903 151.264 175.946 153.084 176.642C154.252 177.091 155.442 176.822 156.79 176.485C157.891 176.215 158.767 175.834 159.374 175.519C159.778 176.036 160.497 176.799 161.643 177.293C163.777 178.259 165.821 177.608 166.81 177.293C167.394 177.114 169.573 176.35 171.168 174.217C172.269 172.757 172.583 171.298 172.786 170.512C173.594 167.166 175.257 164.09 176.335 160.811C176.919 159.015 178.042 156.276 185.546 145.318C193.633 133.506 194.038 134.203 197.992 127.713C202.282 120.662 204.686 116.8 205.742 110.917C206.596 106.156 207.854 99.173 203.675 95.0413C198.935 90.236 189.342 91.4935 184.288 95.8497Z" fill="white"/>
<path d="M205.854 100.206C207.27 113.14 200.261 124.884 192.914 134.898C189.185 139.973 185.254 144.891 181.862 150.168C178.357 155.602 175.639 161.44 173.415 167.503C172.291 170.579 171.572 174.531 168.54 176.372C166.001 177.899 162.676 177.787 160.317 175.991C159.98 175.721 159.643 176.305 159.98 176.574C164.002 179.606 169.73 177.922 171.887 173.521C173.302 170.624 174.133 167.39 175.324 164.404C176.672 161.058 178.2 157.757 179.952 154.614C186.557 142.87 196.486 133.282 202.327 121.066C205.428 114.554 207.337 107.414 206.528 100.183C206.483 99.7791 205.809 99.7566 205.854 100.206Z" fill="#161616"/>
<path d="M183.928 93.8287C177.773 107.279 171.617 120.752 165.439 134.202C162.339 141.006 159.217 147.788 156.116 154.591C154.656 157.802 153.129 160.991 151.713 164.225C150.59 166.762 149.512 169.614 149.938 172.421C150.298 174.688 151.713 177.091 154.207 177.271C156.004 177.405 157.824 176.552 159.486 176.013C161.441 175.385 163.418 174.733 165.372 174.105C165.776 173.97 165.597 173.319 165.192 173.453C163.642 173.947 162.115 174.441 160.565 174.958C158.947 175.474 157.33 176.126 155.667 176.485C152.41 177.158 150.612 174.374 150.5 171.455C150.388 168.221 152.005 165.1 153.308 162.248C154.746 159.127 156.161 156.006 157.599 152.862C163.328 140.355 169.056 127.848 174.763 115.34C177.998 108.267 181.232 101.194 184.467 94.1431C184.692 93.7613 184.108 93.4245 183.928 93.8287Z" fill="#161616"/>
<path d="M159.396 176.148C159.621 176.283 159.846 176.44 160.048 176.597C160.183 176.709 160.385 176.732 160.52 176.597C160.632 176.485 160.654 176.238 160.52 176.126C160.272 175.923 160.003 175.744 159.733 175.564C159.374 175.34 159.037 175.923 159.396 176.148Z" fill="#161616"/>
<path opacity="0.09" d="M195.925 91.8525C193.206 93.1998 194.038 98.6788 193.633 104.674C193.341 109.098 192.6 110.445 182.288 133.955C173.617 153.738 172.583 156.343 169.191 161.485C164.99 167.84 160.767 172.622 157.711 175.789C158.43 175.744 159.149 175.699 159.868 175.654C160.34 176.103 161.104 176.687 162.16 177.136C162.676 177.36 164.99 178.348 167.416 177.54C169.798 176.754 170.966 174.688 171.865 173.094C173.212 170.691 173.572 168.558 173.752 167.57C174.246 164.943 175.796 161.956 178.874 155.961C183.03 147.9 187.073 144.599 194.532 133.574C200.642 124.502 204.012 119.405 205.607 111.725C206.888 105.595 206.506 100.318 206.012 96.8824C202.709 93.7612 198.486 90.5726 195.925 91.8525Z" fill="#6D6C6C"/>
<path opacity="0.16" d="M205.63 107.638C205.248 107.481 203.361 112.017 199.564 118.708C194.33 127.87 192.51 128.723 185.523 139.21C178.469 149.808 178.582 151.582 171.213 162.405C167.394 168.019 164.024 172.465 161.755 175.362C161.104 176.417 161.216 176.911 161.351 177.113C161.912 178.079 164.743 177.428 166.068 177.113C167.776 176.709 168.652 176.507 169.573 175.901C171.528 174.621 171.954 172.622 173.347 168.491C174.089 166.268 175.032 164.112 175.773 161.889C177.391 157.129 179.682 153.783 183.457 148.394C196.397 130.003 196.352 131.036 198.576 126.949C203.9 117.249 206.169 107.863 205.63 107.638Z" fill="#6D6C6C"/>
<path d="M141.784 28.8219C141.199 29.8099 141.087 30.753 141.042 31.1796C140.818 33.0209 141.447 34.458 141.716 35.0194C143.199 38.2305 146.591 39.3307 147.198 39.5104C147.602 41.0148 148.006 42.5193 148.456 44.0462C149.467 47.6166 150.523 51.1195 151.601 54.5326C153.039 54.3305 154.476 54.1285 155.914 53.9264C155.51 52.0177 155.016 50.4908 154.656 49.4803C153.578 46.3815 152.567 44.8322 151.691 41.4639C151.466 40.5658 151.309 39.8023 151.219 39.3307C151.578 39.0837 152.073 38.6571 152.544 38.0508C154.409 35.6257 153.96 32.6617 153.87 32.0329C153.713 31.0674 153.466 29.3159 151.983 27.8339C150.096 25.9252 147.669 25.8803 147.31 25.8803C145.131 25.8129 142.884 26.9357 141.784 28.8219Z" fill="#3570B5"/>
<path d="M143.087 30.6405C142.997 30.91 142.75 31.8755 143.019 33.0656C143.424 34.8171 144.816 36.4114 146.681 36.9503C148.141 37.377 150.365 37.3321 151.556 35.8725C152.387 34.862 152.365 33.6495 152.342 32.5267C152.32 31.2693 152.275 29.3381 150.747 28.0807C148.905 26.5537 146.456 27.3172 146.299 27.3621C144.704 27.8786 143.513 29.1585 143.087 30.6405Z" fill="white"/>
<path d="M147.153 44.8096C147.085 45.1464 146.995 45.6404 146.995 46.2018C146.995 46.4713 146.995 47.2123 147.265 48.335C147.445 49.0311 147.557 49.2108 148.298 51.0071C149.107 52.9607 149.264 53.4996 149.871 53.7466C150.275 53.9263 150.702 53.8589 150.972 53.7915C150.32 52.7586 150.365 52.1523 150.523 51.7931C150.657 51.4562 150.882 51.3889 151.017 50.9622C151.062 50.805 151.129 50.5131 150.882 49.5027C150.635 48.5147 150.523 48.5147 150.455 47.9308C150.365 47.2572 150.523 47.2347 150.433 46.606C150.41 46.4937 150.32 45.8874 149.938 45.1913C149.579 44.5626 149.354 44.1584 148.905 44.0237C148.321 43.889 147.669 44.2258 147.153 44.8096Z" fill="white"/>
<path d="M152.747 44.5403C152.185 45.1017 151.399 46.157 151.713 46.7184C151.983 47.1675 152.926 47.2124 153.398 47.2349C153.735 47.2573 154.005 47.2349 154.207 47.2124C154.297 47.4594 154.387 47.684 154.454 47.931C155.083 49.7723 155.622 51.5911 156.071 53.3875C156.139 53.6345 156.206 53.8815 156.251 54.106C156.049 54.398 155.667 54.8471 155.061 55.2063C154.229 55.6779 153.443 55.7452 153.061 55.7452C153.488 56.7782 154.117 58.0805 155.061 59.4952C155.33 59.8994 156.116 61.0895 157.419 62.5041C158.655 63.8514 159.891 65.1987 161.867 66.3664C164.541 67.9607 167.057 68.3199 168.45 68.4996C170.539 68.769 172.179 68.6568 173.01 68.5669C173.729 68.4996 176.582 68.1403 179.885 66.4562C182.962 64.8843 184.827 62.9981 186.242 61.5386C187.343 60.4158 189.23 58.4174 190.87 55.2512C191.993 53.0507 192.42 51.4115 193.229 48.2004C194.375 43.6646 194.936 41.3966 193.813 40.3637C192.869 39.5104 191.207 39.8697 189.859 40.1841C187.635 40.6781 186.13 41.8682 184.31 43.3502C183.389 44.1137 182.58 44.8996 181.03 46.4265C177.75 49.66 177.548 50.1765 175.751 51.6585C174.673 52.5567 173.797 53.1405 172.044 54.2857C168.54 56.621 167.551 56.8231 166.787 56.868C165.395 56.9353 164.339 56.4638 163.373 56.0372C160.497 54.7348 159.127 52.4444 158.7 51.7258C158.138 50.7603 157.711 50.0193 157.689 48.9864C157.666 47.7962 158.183 47.4145 158.206 45.955C158.228 45.1017 158.251 43.9116 157.532 43.3053C156.408 42.3173 154.027 43.2828 152.747 44.5403Z" fill="white"/>
<path d="M157.307 50.2213C159.419 53.859 162.676 57.6763 167.349 57.1149C167.776 57.07 167.776 56.3964 167.349 56.4413C162.901 56.9802 159.891 53.3201 157.869 49.8845C157.667 49.5027 157.082 49.8396 157.307 50.2213Z" fill="#161616"/>
<path d="M162.429 57.9232C165.395 58.1926 168.135 56.9127 170.629 55.4756C173.212 53.9936 175.594 52.1972 177.75 50.1314C182.064 45.9772 186.557 39.2857 193.454 40.5207C193.88 40.5881 194.06 39.9369 193.633 39.8695C187.5 38.7692 182.962 43.6868 179.166 47.7062C176.942 50.064 174.538 52.2197 171.797 53.9711C169.011 55.7675 165.844 57.5415 162.429 57.2495C162.002 57.2046 162.002 57.8783 162.429 57.9232Z" fill="#161616"/>
<path d="M151.915 54.5775C155.218 60.8424 159.284 67.0175 166.675 68.5893C173.482 70.0489 180.401 67.5789 185.389 62.9083C188.309 60.1688 190.556 56.8006 192.173 53.1629C192.353 52.7812 191.769 52.4219 191.589 52.8261C188.871 58.8889 184.265 64.4127 177.975 66.9277C171.64 69.4426 164.114 68.6342 159.082 63.8514C156.251 61.1568 154.319 57.6763 152.499 54.2407C152.297 53.8365 151.713 54.1958 151.915 54.5775Z" fill="#161616"/>
<path d="M153.735 43.5972C152.589 44.0912 150.972 45.5956 151.601 47.0103C152.297 48.5372 154.768 47.2124 155.645 46.5612C155.982 46.3142 155.645 45.7303 155.308 45.9774C154.791 46.3591 152.387 47.7962 152.163 46.4714C151.983 45.4833 153.331 44.5178 154.095 44.181C154.476 44.0013 154.117 43.4175 153.735 43.5972Z" fill="#161616"/>
<path d="M153.87 44.2259C154.724 43.5747 156.071 42.5418 157.15 43.4849C158.026 44.2708 157.846 45.6406 157.689 46.651C157.487 47.9534 156.97 49.7723 157.801 50.9399C158.048 51.2992 158.632 50.9624 158.385 50.6031C157.577 49.4579 158.318 47.392 158.453 46.1346C158.565 45.1915 158.52 44.2259 157.981 43.44C156.813 41.7334 154.836 42.6541 153.533 43.6421C153.196 43.9116 153.533 44.4954 153.87 44.2259Z" fill="#161616"/>
<path d="M153.488 47.2125C154.252 49.4804 154.948 51.7708 155.622 54.0837C155.69 53.949 155.779 53.8142 155.847 53.6795C154.319 54.0388 152.747 53.657 151.309 54.398C151.466 54.4654 151.646 54.5328 151.803 54.6001C151.533 53.6346 151.197 52.669 150.86 51.7259C150.702 51.3217 150.051 51.5014 150.208 51.9056C150.567 52.8487 150.882 53.8142 151.152 54.7798C151.219 55.0043 151.444 55.0717 151.646 54.9819C152.994 54.2858 154.589 54.6675 156.027 54.3307C156.206 54.2858 156.319 54.0837 156.251 53.9265C155.577 51.6137 154.881 49.3457 154.117 47.0553C154.005 46.6062 153.353 46.7859 153.488 47.2125Z" fill="#161616"/>
<path d="M151.399 54.8245C152.387 56.4413 155.465 55.835 156.161 54.2183C156.341 53.8141 155.757 53.4772 155.577 53.8814C155.105 55.0042 152.702 55.6778 151.96 54.4877C151.758 54.106 151.174 54.4428 151.399 54.8245Z" fill="#161616"/>
<path d="M152.005 55.0267C153.151 55.2737 154.274 55.2064 155.375 54.8022C155.779 54.645 155.6 53.9938 155.195 54.151C154.207 54.5103 153.196 54.5776 152.185 54.3755C151.758 54.2857 151.578 54.9369 152.005 55.0267Z" fill="#161616"/>
<path d="M151.803 54.9144C152.612 53.6794 154.139 53.3426 155.397 54.0836C155.779 54.3081 156.116 53.7243 155.734 53.4998C154.117 52.5791 152.23 53.0282 151.196 54.5776C150.972 54.9369 151.556 55.2962 151.803 54.9144Z" fill="#161616"/>
<path d="M153.039 54.5104C153.308 53.6571 154.454 54.1286 154.993 54.3757C155.375 54.5553 155.734 53.9715 155.33 53.7918C154.364 53.3427 152.814 52.961 152.387 54.3307C152.275 54.7574 152.926 54.937 153.039 54.5104Z" fill="#161616"/>
<path d="M150.231 53.4546C149.646 53.0729 149.264 52.4217 149.287 51.7031C149.309 51.3888 149.399 51.0969 149.534 50.8274C149.601 50.7151 150.231 49.9068 150.388 50.019C150.725 50.2885 151.197 49.8169 150.86 49.5475C150.006 48.8738 148.972 50.2436 148.748 50.9846C148.366 52.1747 148.883 53.3648 149.894 54.0384C150.253 54.263 150.59 53.6792 150.231 53.4546Z" fill="#161616"/>
<path d="M150.433 52.1525C151.421 51.5911 151.578 50.2663 150.702 49.5253C150.365 49.2558 149.894 49.7274 150.23 49.9968C150.77 50.4459 150.725 51.2094 150.096 51.5687C149.714 51.7932 150.051 52.377 150.433 52.1525Z" fill="#161616"/>
<path d="M149.467 53.6568C149.961 54.1508 150.747 54.263 151.331 53.8813C151.691 53.6568 151.354 53.0729 150.994 53.2975C150.657 53.522 150.23 53.4771 149.938 53.1852C149.646 52.8708 149.175 53.3424 149.467 53.6568Z" fill="#161616"/>
<path d="M148.927 51.4113C148.523 50.805 148.388 50.1089 148.546 49.3903C148.725 48.537 149.489 47.5041 150.388 48.3799C150.702 48.6942 151.174 48.2002 150.859 47.9083C149.983 47.0326 148.905 47.2796 148.276 48.3125C147.625 49.3679 147.692 50.7376 148.366 51.7481C148.591 52.1074 149.175 51.7705 148.927 51.4113Z" fill="#161616"/>
<path d="M148.141 49.8617C148.096 49.5474 147.984 49.3004 147.827 49.0084C147.535 48.4695 147.467 48.0653 147.625 47.4591C147.894 46.4261 148.77 45.6627 149.826 46.2914C150.208 46.516 150.545 45.9321 150.163 45.7076C149.197 45.1462 147.961 45.3708 147.355 46.3363C147.04 46.8303 146.838 47.4815 146.838 48.0654C146.816 48.8064 147.377 49.3228 147.49 50.0414C147.557 50.468 148.209 50.2884 148.141 49.8617Z" fill="#161616"/>
<path d="M147.49 46.5836C147.13 46.0671 147.108 45.3486 147.557 44.877C148.006 44.4055 148.725 44.383 149.264 44.7198C149.624 44.9444 149.961 44.3606 149.601 44.136C148.815 43.642 147.737 43.7318 147.085 44.4055C146.434 45.0791 146.389 46.1794 146.906 46.9429C147.153 47.2797 147.737 46.9429 147.49 46.5836Z" fill="#161616"/>
<path d="M149.579 46.2018C150.073 46.4488 150.253 47.1449 149.871 47.5715C149.579 47.8859 150.051 48.3799 150.343 48.0431C150.994 47.3245 150.815 46.067 149.916 45.618C149.534 45.4383 149.175 45.9997 149.579 46.2018Z" fill="#161616"/>
<path d="M148.995 44.7423C149.422 44.9444 149.669 45.3935 149.579 45.8875C149.489 46.3142 150.141 46.4938 150.23 46.0672C150.388 45.3037 150.028 44.5178 149.332 44.181C148.95 43.9564 148.613 44.5402 148.995 44.7423Z" fill="#161616"/>
<path d="M150.343 48.6719C150.5 48.9189 150.545 49.2332 150.41 49.5252C150.343 49.6823 150.365 49.8844 150.523 49.9967C150.657 50.0865 150.904 50.0416 150.994 49.8844C151.219 49.3904 151.197 48.8291 150.927 48.3575C150.702 47.9533 150.118 48.2901 150.343 48.6719Z" fill="#161616"/>
<path d="M147.018 39.7798C147.288 41.3067 147.625 42.8112 148.051 44.3157C148.164 44.7423 148.815 44.5627 148.703 44.136C148.276 42.654 147.939 41.1271 147.669 39.6002C147.602 39.1735 146.951 39.3532 147.018 39.7798Z" fill="#161616"/>
<path d="M150.792 39.4207C151.331 41.217 151.87 42.991 152.387 44.7874C152.522 45.1915 153.151 45.0344 153.039 44.6077C152.499 42.8113 151.96 41.0374 151.444 39.241C151.309 38.8144 150.657 38.994 150.792 39.4207Z" fill="#161616"/>
<path d="M147.085 39.1287C144.232 38.8592 141.626 35.2215 141.222 32.5719C140.728 29.3608 143.716 26.7112 146.681 26.1498C153.039 24.9821 156.408 36.1197 150.972 39.0389C150.59 39.2409 150.927 39.8248 151.309 39.6227C156.027 37.0853 154.746 29.0465 150.792 26.4193C146.03 23.2531 138.886 28.3504 140.863 33.8742C141.784 36.4341 144.187 39.5104 147.085 39.7799C147.512 39.8472 147.512 39.1736 147.085 39.1287Z" fill="#161616"/>
<path d="M147.063 36.7707C144.884 36.2766 143.176 34.368 143.199 32.0776C143.221 29.6525 145.221 27.4968 147.669 27.407C150.612 27.3172 152.05 30.1689 152.005 32.7737C151.983 34.2782 151.758 35.7153 150.208 36.3216C149.017 36.7707 147.714 37.1748 146.456 36.6808C146.052 36.5237 145.872 37.1748 146.277 37.332C147.714 37.8934 149.377 37.4218 150.747 36.8156C152.05 36.2317 152.432 35.1988 152.612 33.8291C152.971 30.8426 151.803 27.1825 148.366 26.7783C145.535 26.4415 143.019 28.642 142.615 31.404C142.21 34.2108 144.21 36.7931 146.928 37.4218C147.31 37.5117 147.49 36.8605 147.063 36.7707Z" fill="#161616"/>
<path d="M147.782 27.1602C146.861 30.0569 145.94 32.976 145.041 35.8727C144.906 36.2768 145.558 36.4565 145.693 36.0523C146.614 33.1556 147.535 30.2365 148.433 27.3398C148.568 26.9357 147.917 26.756 147.782 27.1602Z" fill="#161616"/>
<path d="M149.107 30.3936C148.411 32.4819 147.647 34.5477 146.861 36.5911C146.703 36.9953 147.355 37.175 147.512 36.7708C148.298 34.7274 149.062 32.6391 149.759 30.5732C149.894 30.1466 149.242 29.967 149.107 30.3936Z" fill="#161616"/>
<path opacity="0.12" d="M193.588 40.4534C192.6 42.9459 190.87 46.6509 187.905 50.6029C184.715 54.8918 181.098 59.742 174.583 61.8528C172.965 62.3692 168.135 63.8737 162.339 62.0773C157.285 60.5055 154.252 57.272 153.061 55.8574C153.623 57.3618 154.679 59.6747 156.656 61.9651C157.689 63.1552 161.486 67.444 168.023 68.5219C168.832 68.6566 173.055 69.3078 177.975 67.4216C183.389 65.3557 186.31 61.516 188.354 58.7989C189.792 56.8903 192.353 53.3873 193.386 48.088C193.993 44.9443 193.836 42.2498 193.588 40.4534Z" fill="#6D6C6C"/>
<path opacity="0.21" d="M157.756 62.3019C159.441 63.3797 162.497 65.0189 166.608 65.468C171.707 66.0294 175.571 64.4351 178.402 63.2899C184.018 60.9771 187.95 57.4966 190.421 54.7795C189.567 56.8005 187.77 60.2585 184.198 63.2899C182.513 64.727 176.695 69.6671 168.787 68.5219C162.766 67.6461 158.992 63.7166 157.756 62.3019Z" fill="#6D6C6C"/>
<path d="M189.612 38.253C185.883 41.0149 184.512 44.6975 182.962 48.7843C180.087 56.374 180.559 62.4143 180.873 71.9801C181.075 78.0653 181.255 86.8901 181.075 97.8929C184.939 98.8585 189.792 99.6893 195.408 99.8914C199.766 100.026 203.653 99.7567 206.933 99.3076C208.775 90.8421 210.707 84.0159 212.145 79.2779C216.952 63.4248 221.827 51.8157 217.379 42.5194C217.154 42.0703 216.93 41.6886 216.683 41.3517C211.561 34.1213 197.205 32.6168 189.612 38.253Z" fill="#4E91DF"/>
<path opacity="0.15" d="M205.832 35.3337C205.54 36.9729 205.046 39.5552 204.304 42.654C200.103 60.1688 195.88 61.1343 195.138 70.8348C194.375 80.6026 198.329 84.128 195.026 91.4708C193.296 95.3105 190.645 97.8704 188.691 99.4422C191.814 99.6668 195.161 99.8015 198.733 99.779C201.541 99.7566 204.192 99.6443 206.708 99.4422C208.303 92.5037 209.831 86.9573 210.976 83.0727C211.538 81.164 212.212 78.8961 213.493 74.6746C215.582 67.7585 216.121 66.0519 216.997 62.7735C218.278 57.9008 218.929 55.4083 219.064 52.9383C219.289 49.2333 219.536 45.0118 216.885 41.4639C215.2 39.196 212.886 37.9834 211.65 37.3098C209.359 36.0748 207.247 35.5583 205.832 35.3337Z" fill="#6D6C6C"/>
<path opacity="0.17" d="M215.222 66.4561C214.751 66.2765 212.347 72.6536 208.123 81.2987C204.192 89.3375 200.463 95.6698 197.857 99.8688C200.8 99.6443 203.765 99.4422 206.708 99.2176C207.472 96.2312 208.64 91.7626 210.1 86.3286C213.695 72.9455 215.694 66.6133 215.222 66.4561Z" fill="#6D6C6C"/>
<path d="M213.582 40.3411C212.841 40.6105 211.785 41.0596 210.572 41.7557C206.304 44.2033 204.035 47.5715 202.642 49.5924C202.642 49.5924 197.947 56.4187 190.713 65.5803C188.466 68.432 186.22 71.0817 183.457 73.9559C177.728 79.9289 175.189 81.1639 174.089 81.6354C171.348 82.848 168.944 83.9034 165.776 83.6564C163.687 83.4992 162.384 82.848 160.946 83.7237C159.419 84.6444 158.408 86.8449 158.61 88.0575C158.633 88.1922 158.722 88.6189 158.767 89.2252C158.79 89.3823 158.812 89.9212 158.767 90.7072C158.7 91.9197 158.565 91.8075 158.61 92.2565C158.745 93.2221 159.419 93.7161 159.217 94.0305C159.082 94.255 158.722 94.0529 158.453 94.3448C158.138 94.6592 158.273 95.2655 158.296 95.3553C158.453 96.0514 159.037 96.4556 159.284 96.5903C160.25 97.2191 160.901 96.8822 163.35 96.9721C165.08 97.0394 165.597 97.2415 166.45 96.8149C166.675 96.7026 167.057 96.5005 167.731 95.737C169.663 93.5814 169.438 92.1443 171.123 90.7745C171.73 90.2805 172.336 90.0111 172.718 89.8539C173.954 89.315 174.763 89.3374 175.953 89.068C176.762 88.9108 177.571 88.574 179.188 87.9003C181.817 86.8225 183.838 85.7671 184.625 85.3405C189.365 82.7806 193.656 79.5471 194.577 78.8286C199.497 75.0786 202.642 71.9125 206.731 67.8033C209.674 64.8617 212.774 61.5384 215.784 57.025C216.705 55.6328 218.345 53.0505 218.884 49.4128C219.131 47.7736 219.378 45.9323 218.435 44.0686C217.132 41.3515 214.279 40.5207 213.582 40.3411Z" fill="white"/>
<path d="M212.908 40.1389C208.663 41.4637 205.428 45.3035 202.777 48.6717C199.766 52.5114 197.048 56.5533 194.128 60.438C191.005 64.5921 187.77 68.6565 184.243 72.4738C180.896 76.0665 177.234 79.6144 172.718 81.6802C170.09 82.8703 167.192 83.544 164.316 83.297C162.676 83.1623 160.587 82.7581 159.576 84.4197C159.351 84.779 159.935 85.1383 160.16 84.7565C160.767 83.7461 162.025 83.7685 163.058 83.8584C164.136 83.9257 165.192 84.0605 166.271 84.0155C168.405 83.9033 170.517 83.3643 172.494 82.5335C176.695 80.7596 180.199 77.7057 183.344 74.4498C190.129 67.4439 195.7 59.45 201.451 51.6133C203.069 49.4127 204.731 47.257 206.641 45.3035C208.483 43.4173 210.572 41.5984 213.156 40.79C213.493 40.6553 213.313 40.0041 212.908 40.1389Z" fill="#161616"/>
<path d="M212.841 40.5656C216.593 40.0491 218.682 44.0236 218.66 47.2346C218.637 50.4232 217.289 53.5669 215.717 56.2839C212.796 61.3812 208.55 65.7374 204.439 69.8915C196.307 78.0426 186.826 85.4303 175.616 88.7311C174.246 89.1353 172.583 89.27 171.37 90.0784C170.225 90.8419 169.64 92.3239 168.854 93.4242C168.27 94.2325 167.641 95.0185 166.967 95.7595C166.091 96.7026 165.282 96.7924 164.092 96.7026C163.193 96.6352 162.294 96.5678 161.373 96.5005C160.452 96.4331 159.149 96.5005 158.7 95.5125C158.52 95.1083 157.936 95.4676 158.116 95.8493C158.588 96.9047 159.711 97.0394 160.744 97.1292C161.575 97.1966 162.407 97.2639 163.238 97.3088C164.047 97.3762 164.968 97.5558 165.776 97.3987C167.124 97.1292 168.135 95.4451 168.922 94.4571C169.865 93.2445 170.651 91.246 172.022 90.4826C172.786 90.0559 173.752 89.9437 174.583 89.7191C175.414 89.4946 176.223 89.27 177.032 89.0006C178.492 88.529 179.952 87.9676 181.367 87.3614C184.333 86.0814 187.163 84.5545 189.882 82.803C195.318 79.3001 200.261 75.0561 204.821 70.4978C209.449 65.8721 214.324 60.9096 217.244 54.9591C218.772 51.8379 220.03 48.0655 219.041 44.6074C218.255 41.823 215.717 39.5326 212.706 39.9368C212.235 39.9817 212.414 40.6329 212.841 40.5656Z" fill="#161616"/>
<path d="M158.835 87.9004C159.037 86.5306 162.519 86.6653 163.44 86.5755C164.698 86.4632 165.821 86.1938 166.81 85.363C167.147 85.0711 166.653 84.5995 166.338 84.8914C164.9 86.104 162.923 85.857 161.171 86.0815C160.25 86.2163 158.363 86.5531 158.206 87.6983C158.116 88.1473 158.767 88.327 158.835 87.9004Z" fill="#161616"/>
<path d="M158.161 87.9903C159.262 90.1685 161.643 91.3586 164.024 90.8421C164.451 90.7523 164.271 90.1011 163.844 90.1909C161.733 90.6625 159.688 89.5622 158.722 87.6535C158.543 87.2718 157.959 87.6086 158.161 87.9903Z" fill="#161616"/>
<path d="M158.475 88.6189C158.026 89.7866 158.543 91.089 159.531 91.8075C160.654 92.6384 162.115 92.5486 163.418 92.324C163.844 92.2566 163.665 91.6054 163.238 91.6728C162.227 91.8525 161.081 91.9423 160.138 91.4033C159.217 90.8869 158.745 89.7866 159.104 88.7986C159.284 88.3944 158.632 88.2148 158.475 88.6189Z" fill="#161616"/>
<path d="M158.52 90.4826C157.891 91.5155 158.161 92.8853 159.037 93.7161C160.07 94.7041 161.643 94.5919 162.833 94.008C163.215 93.8284 162.878 93.2446 162.496 93.4242C161.575 93.8508 160.385 93.9856 159.554 93.267C158.857 92.6607 158.632 91.6278 159.104 90.8194C159.329 90.4377 158.745 90.1009 158.52 90.4826Z" fill="#161616"/>
<path d="M158.812 95.6023C158.363 94.8837 158.969 93.9855 159.823 94.2999C160.228 94.4571 160.407 93.8059 160.003 93.6487C158.61 93.1322 157.509 94.749 158.251 95.9391C158.453 96.2984 159.037 95.9616 158.812 95.6023Z" fill="#161616"/>
<path d="M159.554 84.869C160.812 84.4199 162.137 85.0262 162.676 86.2388C162.856 86.643 163.44 86.2837 163.26 85.902C162.609 84.4424 160.901 83.6789 159.374 84.2403C158.97 84.375 159.149 85.0262 159.554 84.869Z" fill="#161616"/>
<path d="M159.306 84.4646C158.408 85.1158 158.43 86.6652 159.441 87.2041C159.823 87.4062 160.16 86.8224 159.778 86.6203C159.239 86.3284 159.104 85.4077 159.643 85.0485C160.003 84.779 159.666 84.1952 159.306 84.4646Z" fill="#161616"/>
<path d="M159.509 86.3285C159.554 85.8345 159.711 85.4303 160.003 85.0261C159.801 85.0261 159.621 85.0261 159.419 85.0261C159.643 85.4078 159.643 85.7671 159.419 86.1264C159.621 86.1488 159.823 86.1713 160.025 86.2162C159.98 86.0815 159.958 85.0486 160.228 85.2282C160.43 85.3629 159.98 86.059 159.891 86.2162C160.093 86.2162 160.272 86.2162 160.475 86.2162C160.385 86.059 160.317 85.9018 160.317 85.7222C160.407 85.2282 160.542 85.1833 160.699 85.6099C160.812 85.6998 160.924 85.7671 161.014 85.8569C160.946 85.6099 161.014 85.4752 161.216 85.5201C161.418 85.4303 161.463 85.4977 161.351 85.6998C161.508 85.7447 161.665 85.7896 161.823 85.812C161.89 85.8794 161.935 85.9468 162.002 86.0141C161.935 86.4408 162.586 86.6204 162.654 86.1938C162.744 85.6324 162.227 84.8689 161.643 85.3854C161.149 85.8345 161.643 86.6653 162.272 86.3285C162.878 85.9917 162.631 85.071 162.002 84.9138C161.283 84.7567 160.924 85.6099 161.238 86.1489C161.328 86.306 161.553 86.3509 161.71 86.2611C162.272 85.9243 162.227 84.9812 161.598 84.7342C160.789 84.3974 160.272 85.3629 160.385 86.0366C160.407 86.1938 160.565 86.2836 160.699 86.2836C161.643 86.3285 161.868 84.9363 160.991 84.6444C159.778 84.2402 159.441 85.7671 159.891 86.5755C160.025 86.8225 160.34 86.7776 160.475 86.5755C160.789 86.1264 161.441 84.5097 160.407 84.4198C159.441 84.3525 159.172 85.7447 159.374 86.4183C159.464 86.6878 159.846 86.7551 159.98 86.5081C160.317 85.9468 160.317 85.2956 159.98 84.7117C159.846 84.4872 159.531 84.5097 159.396 84.7117C159.037 85.2058 158.88 85.7447 158.812 86.3509C158.79 86.7776 159.464 86.7551 159.509 86.3285Z" fill="#161616"/>
<path d="M158.947 87.0695C160.093 87.2716 162.878 87.4961 163.17 85.8345C163.238 85.4078 162.586 85.2282 162.519 85.6548C162.317 86.8 159.913 86.553 159.127 86.4183C158.7 86.3509 158.52 87.0021 158.947 87.0695Z" fill="#161616"/>
<path d="M161.665 86.7327C162.519 90.1683 162.429 93.6937 161.373 97.0619C161.238 97.4661 161.89 97.6457 162.025 97.2415C163.103 93.761 163.215 90.1009 162.317 86.553C162.204 86.1264 161.553 86.306 161.665 86.7327Z" fill="#161616"/>
<path d="M161.53 86.7777C161.688 88.4843 161.778 90.1684 161.823 91.875C161.867 93.5142 161.98 95.1983 161.441 96.7701C161.306 97.1743 161.957 97.354 162.092 96.9498C162.609 95.4453 162.541 93.8735 162.519 92.3016C162.474 90.4603 162.384 88.619 162.227 86.7777C162.16 86.3511 161.486 86.3511 161.53 86.7777Z" fill="#161616"/>
<path d="M162.407 86.7553C162.901 87.1146 162.811 88.8885 162.833 89.4499C162.856 90.2134 162.856 90.9544 162.811 91.7178C162.721 93.3346 162.474 94.9513 162.07 96.5232C161.957 96.9498 162.609 97.1294 162.721 96.7028C163.215 94.7268 163.485 92.7283 163.507 90.6849C163.507 89.652 163.463 88.6191 163.35 87.5861C163.283 86.9799 163.238 86.5308 162.744 86.1715C162.384 85.9245 162.047 86.5083 162.407 86.7553Z" fill="#161616"/>
<path d="M162.249 86.5754C162.541 88.3943 162.631 90.2131 162.497 92.032C162.474 92.4586 163.148 92.4586 163.17 92.032C163.305 90.1458 163.215 88.2596 162.901 86.3958C162.833 85.9692 162.182 86.1488 162.249 86.5754Z" fill="#161616"/>
<path d="M160.609 86.7104C161.351 89.2029 161.643 91.7852 161.441 94.39C161.396 95.0636 160.699 98.2297 162.519 97.3764C163.193 97.0621 163.26 96.2761 163.328 95.6474C163.463 94.3675 163.485 93.0876 163.485 91.8077C163.485 89.7867 163.755 87.3392 162.586 85.5877C162.339 85.2284 161.755 85.5652 162.002 85.9245C162.968 87.3841 162.789 89.2703 162.811 90.9544C162.811 91.875 162.811 92.7957 162.789 93.7163C162.766 94.1429 162.744 94.5696 162.721 94.9962C162.699 95.2208 162.564 97.0621 161.912 96.2986C161.912 96.2986 162.047 95.3106 162.07 95.1983C162.115 94.7941 162.16 94.3675 162.182 93.9633C162.227 93.1325 162.227 92.3017 162.182 91.4933C162.092 89.8092 161.778 88.1475 161.306 86.5308C161.149 86.1041 160.497 86.2838 160.609 86.7104Z" fill="#161616"/>
<path d="M161.441 86.6205C161.575 87.6983 161.688 88.7762 161.823 89.8315C161.868 90.2582 162.541 90.2582 162.497 89.8315C162.362 88.7537 162.249 87.6759 162.115 86.6205C162.047 86.1939 161.373 86.1939 161.441 86.6205Z" fill="#161616"/>
<path d="M160.767 85.9692C161.238 87.1818 161.62 88.4393 161.867 89.7192C161.957 90.1458 162.609 89.9662 162.519 89.5395C162.272 88.2596 161.912 87.0022 161.418 85.7896C161.261 85.3854 160.609 85.5651 160.767 85.9692Z" fill="#161616"/>
<path opacity="0.15" d="M217.626 42.7437C216.772 42.7437 216.548 47.2795 215.335 51.1417C214.279 54.4875 212.482 57.227 204.843 64.682C194.24 75.0112 188.758 80.2432 179.727 84.779C175.908 86.6877 172.561 87.9227 170.225 88.7086C169.483 89.3598 167.035 91.3358 163.463 91.3358C161.71 91.3358 160.295 90.8643 159.419 90.4601C159.262 90.5499 158.767 90.8418 158.543 91.4481C158.296 92.0993 158.475 92.8628 158.969 93.4241C158.79 93.5813 158.296 94.1203 158.318 94.8388C158.34 95.6696 158.992 96.1861 159.194 96.3657C159.958 96.9945 161.261 97.0169 163.777 97.0169C164.429 97.0169 165.372 97.0169 166.518 97.0169C166.945 96.5678 167.574 95.8717 168.27 94.9511C169.933 92.7056 170.112 91.5829 171.325 90.5724C172.718 89.4272 174.336 89.3823 175.032 89.27C181.03 88.2371 188.466 83.297 192.622 80.5351C199.25 76.134 203.024 71.9798 210.55 63.7164C210.55 63.7164 214.548 59.3153 217.649 52.5789C218.12 51.5684 219.131 49.2106 218.839 46.2466C218.682 44.832 218.21 42.7661 217.626 42.7437Z" fill="#6D6C6C"/>
<path d="M208.168 20.0869C208.348 25.521 208.146 28.5973 209.067 33.7843C209.494 36.2094 210.01 38.163 210.392 39.4654C208.078 40.2064 204.192 41.1046 199.429 40.5881C196.307 40.2513 193.768 39.4205 191.948 38.657C192.78 37.0852 193.791 34.7723 194.352 31.8532C194.846 29.3158 194.846 27.1152 194.734 25.4536C192.398 24.5105 190.061 23.5449 187.725 22.6018C187.523 21.4117 187.343 20.2216 187.141 19.054C186.489 18.8519 185.815 18.6498 185.164 18.4477C186.04 17.1229 187.41 15.0346 189.028 12.4298C192.061 7.5122 192.24 6.74874 193.454 5.78318C196.733 3.13352 202.754 2.45987 205.877 5.17691C207.719 6.79365 207.899 11.2397 208.168 20.0869Z" fill="white" stroke="#161616" stroke-miterlimit="10"/>
<path d="M185.119 18.8294C186.355 19.1887 187.613 19.4133 188.893 19.548C189.32 19.5929 189.32 18.9192 188.893 18.8743C187.68 18.7396 186.467 18.5151 185.299 18.1782C184.872 18.066 184.692 18.7172 185.119 18.8294Z" fill="#161616"/>
<path d="M187.141 9.10661C187.972 8.90452 188.871 9.35362 189.185 10.162C189.342 10.5662 189.994 10.3865 189.837 9.98235C189.387 8.8147 188.197 8.16351 186.984 8.45542C186.534 8.5677 186.714 9.21889 187.141 9.10661Z" fill="#161616"/>
<path d="M192.196 11.2397C193.206 11.1948 194.127 11.7786 194.464 12.7217C194.599 13.1259 195.251 12.9463 195.116 12.5421C194.689 11.3071 193.521 10.4762 192.218 10.5436C191.769 10.5885 191.769 11.2622 192.196 11.2397Z" fill="#161616"/>
<path d="M192.42 14.0914C192.263 13.7546 192.33 13.4627 192.375 13.1034C192.443 13.0136 192.443 12.9687 192.375 13.0136C192.308 13.0361 192.308 13.081 192.375 13.1483C192.398 13.3055 192.443 13.4627 192.465 13.6199C192.465 13.7322 192.42 13.9567 192.443 14.0465C192.488 14.0914 192.532 14.1363 192.577 14.1812C192.577 14.1139 192.6 14.0465 192.6 13.9792C192.645 13.6423 192.69 13.3055 192.735 12.9462C192.78 12.6094 192.24 12.4971 192.106 12.7666C191.993 12.9911 191.948 13.1932 191.948 13.4402C191.971 13.8669 192.645 13.8669 192.622 13.4402C192.622 13.3055 192.622 13.2381 192.69 13.1034C192.488 13.0361 192.263 12.9911 192.061 12.9238C192.016 13.328 191.903 13.7546 191.903 14.1588C191.903 14.4507 192.061 14.6977 192.353 14.7426C193.094 14.8549 193.161 13.9118 193.117 13.3953C193.049 12.9238 192.69 11.9133 192.038 12.4522C191.477 12.9013 191.611 13.8669 191.859 14.4283C192.016 14.81 192.6 14.4732 192.42 14.0914Z" fill="#161616"/>
<path d="M192.195 6.88349C192.645 5.82811 193.543 4.16646 195.228 2.61708C195.812 2.07816 197.07 0.932969 198.755 0.371599C201.945 -0.683776 206.101 0.551239 208.573 3.53773C210.999 6.45685 211.471 10.6784 209.831 14.2936C203.967 11.8235 198.081 9.35352 192.195 6.88349Z" fill="#4E91DF"/>
<path d="M182.198 4.16657C191.297 7.8267 200.395 11.4644 209.471 15.1245C210.684 15.6185 211.201 13.6649 210.01 13.1709C200.912 9.51081 191.814 5.87313 182.738 2.213C181.547 1.74145 181.008 3.69502 182.198 4.16657Z" fill="#161616"/>
<path d="M203.81 12.4521C201.99 12.6318 200.732 13.5075 199.25 14.5629C196.127 16.8084 196.554 18.0434 194.42 19.3907C191.027 21.5463 188.781 19.1661 185.703 21.3218C183.075 23.1631 182.513 26.3966 182.401 27.16C182.288 27.8786 181.906 30.8202 183.726 33.38C185.299 35.603 187.927 36.7033 188.197 36.3665C188.287 36.2542 188.152 35.85 186.916 34.4578C187.276 34.8845 187.86 35.4459 188.713 35.8276C189.702 36.2767 190.713 36.3665 190.758 36.2093C190.803 36.097 190.241 35.9623 189.927 35.4009C189.747 35.0641 189.724 34.7273 189.724 34.4578C190.398 35.1989 191.319 35.9399 192.375 35.9174C195.273 35.8051 197.318 29.9893 197.992 28.0582C200.171 21.8158 199.25 17.8413 202.08 16.1796C202.327 16.0449 203.451 15.3713 204.394 15.8204C205.607 16.3817 206.034 18.5598 205.293 19.7499C204.641 20.7604 203.316 20.738 203.338 20.9625C203.383 21.2544 205.63 21.4116 207.764 20.4685C208.55 20.1317 209.179 19.8398 209.673 19.1661C210.505 17.976 210.325 16.2919 209.831 15.2141C208.752 12.9012 205.787 12.25 203.81 12.4521Z" fill="#161616" stroke="#161616" stroke-miterlimit="10"/>
<path opacity="0.22" d="M204.125 21.3218C203.72 21.2544 203.136 21.1197 203.136 20.985C203.136 20.9176 203.293 20.8502 203.293 20.8502C203.293 20.8278 202.664 21.3218 202.035 21.2544C201.743 21.2095 201.519 21.0523 201.384 20.9176C201.878 23.3652 202.305 26.3292 202.327 29.7423C202.372 34.0761 201.811 37.7812 201.182 40.6329C202.529 40.7901 204.462 40.835 206.686 40.3635C208.078 40.0716 209.269 39.6225 210.19 39.1958C208.842 35.0641 208.438 31.9205 208.326 29.8322C208.258 28.8442 208.191 26.5313 208.146 25.4086C208.078 23.3427 208.011 21.6362 207.989 20.491C207.786 20.5808 207.472 20.738 207.067 20.8952C206.528 21.1197 205.405 21.5239 204.125 21.3218Z" fill="#6D6C6C"/>
<path d="M202.462 0.169678C204.776 1.29242 206.101 3.71754 205.787 6.09774C205.405 8.92705 202.889 10.2519 202.642 10.3866C205.158 11.3971 207.674 12.3851 210.19 13.3956C210.392 12.8117 210.617 12.0034 210.729 10.9929C211.044 7.80431 209.741 5.4241 209.449 4.95255C208.999 4.18909 207.404 1.60679 204.259 0.573865C203.563 0.304407 202.934 0.214587 202.462 0.169678Z" fill="#4475AF"/>
</svg>
