<svg width="749" height="749" viewBox="0 0 749 749" fill="none" xmlns="http://www.w3.org/2000/svg">
<path d="M80.811 75.5006L150.591 529.071C151.099 532.815 152.161 536.383 153.692 539.689C158.302 549.642 167.161 557.225 177.94 560.109C181.233 560.994 184.685 561.436 188.215 561.376H598.75C615.255 561.376 629.806 550.549 634.549 534.74L746.674 160.99C750.069 149.674 747.913 137.419 740.861 127.94C733.808 118.462 722.689 112.876 710.875 112.876H162.19L149.898 32.975C149.438 29.6343 148.536 26.4345 147.253 23.4365C144.925 17.9769 141.359 13.2477 136.955 9.54084C132.87 6.0952 128.035 3.50972 122.73 2.06345C119.391 1.1491 115.888 0.691116 112.303 0.750555H38.125C17.4834 0.750555 0.75 17.4839 0.75 38.1256C0.75 58.7672 17.4834 75.5006 38.125 75.5006H80.811ZM219.69 486.626L173.69 187.626H660.642L570.942 486.626H219.69Z" fill="#3570B5"/>
<path d="M299.75 673.501C299.75 714.784 266.283 748.251 225 748.251C183.717 748.251 150.25 714.784 150.25 673.501C150.25 632.217 183.717 598.751 225 598.751C266.283 598.751 299.75 632.217 299.75 673.501Z" fill="#3570B5"/>
<path d="M636.125 673.501C636.125 714.784 602.658 748.251 561.375 748.251C520.092 748.251 486.625 714.784 486.625 673.501C486.625 632.217 520.092 598.751 561.375 598.751C602.658 598.751 636.125 632.217 636.125 673.501Z" fill="#3570B5"/>
</svg>
