<svg width="34" height="48" viewBox="0 0 34 48" fill="none" xmlns="http://www.w3.org/2000/svg">
<path d="M0 4C0 1.79086 1.79086 0 4 0H34V48H4C1.79086 48 0 46.2091 0 44V4Z" fill="#0504F8"/>
<path d="M8.036 38V28.2H9.212V38H8.036ZM11.2899 38V28.2H14.4539C15.2192 28.2 15.8446 28.326 16.3299 28.578C16.8152 28.83 17.1746 29.1753 17.4079 29.614C17.6412 30.0527 17.7579 30.538 17.7579 31.07C17.7579 31.686 17.5899 32.2413 17.2539 32.736C16.9272 33.2307 16.4139 33.5807 15.7139 33.786L17.8559 38H16.4699L14.4819 33.954H14.3979H12.4659V38H11.2899ZM12.4659 33.03H14.3699C15.1259 33.03 15.6766 32.848 16.0219 32.484C16.3672 32.12 16.5399 31.6533 16.5399 31.084C16.5399 30.5053 16.3672 30.048 16.0219 29.712C15.6859 29.3667 15.1306 29.194 14.3559 29.194H12.4659V33.03ZM19.5887 38V28.2H20.7647V37.062H25.3287V38H19.5887Z" fill="white"/>
<path d="M20.7203 8.24912L20.9987 9.11224H21.8997L21.1708 9.64568L21.4492 10.5088L20.7203 9.97536L19.9914 10.5088L20.2698 9.64568L19.5409 9.11224H20.4419L20.7203 8.24912Z" fill="#FFF734"/>
<path d="M17 7L17.2784 7.86312H18.1794L17.4505 8.39656L17.7289 9.25968L17 8.72624L16.2711 9.25968L16.5495 8.39656L15.8206 7.86312H16.7216L17 7Z" fill="#FFF734"/>
<path d="M10.1794 13.8702L10.4578 14.7333H11.3588L10.6299 15.2667L10.9083 16.1298L10.1794 15.5964L9.4505 16.1298L9.72892 15.2667L9 14.7333H9.90099L10.1794 13.8702Z" fill="#FFF734"/>
<path d="M17 20.7403L17.2784 21.6034H18.1794L17.4505 22.1369L17.7289 23L17 22.4666L16.2711 23L16.5495 22.1369L15.8206 21.6034H16.7216L17 20.7403Z" fill="#FFF734"/>
<path d="M23.8206 13.8702L24.099 14.7333H25L24.2711 15.2667L24.5495 16.1298L23.8206 15.5964L23.0917 16.1298L23.3701 15.2667L22.6412 14.7333H23.5422L23.8206 13.8702Z" fill="#FFF734"/>
<path d="M23.2005 10.7474L23.479 11.6105H24.3799L23.651 12.1439L23.9295 13.007L23.2005 12.4736L22.4716 13.007L22.75 12.1439L22.0211 11.6105H22.9221L23.2005 10.7474Z" fill="#FFF734"/>
<path d="M23.2005 16.993L23.479 17.8561H24.3799L23.651 18.3895L23.9295 19.2526L23.2005 18.7192L22.4716 19.2526L22.75 18.3895L22.0211 17.8561H22.9221L23.2005 16.993Z" fill="#FFF734"/>
<path d="M20.7203 19.4912L20.9987 20.3543H21.8997L21.1708 20.8878L21.4492 21.7509L20.7203 21.2174L19.9914 21.7509L20.2698 20.8878L19.5409 20.3543H20.4419L20.7203 19.4912Z" fill="#FFF734"/>
<path d="M13.2797 19.4912L13.5581 20.3543H14.4591L13.7302 20.8878L14.0086 21.7509L13.2797 21.2174L12.5508 21.7509L12.8292 20.8878L12.1003 20.3543H13.0013L13.2797 19.4912Z" fill="#FFF734"/>
<path d="M10.7995 16.993L11.0779 17.8561H11.9789L11.25 18.3895L11.5284 19.2526L10.7995 18.7192L10.0705 19.2526L10.349 18.3895L9.62005 17.8561H10.521L10.7995 16.993Z" fill="#FFF734"/>
<path d="M10.7995 10.7474L11.0779 11.6105H11.9789L11.25 12.1439L11.5284 13.007L10.7995 12.4736L10.0705 13.007L10.349 12.1439L9.62005 11.6105H10.521L10.7995 10.7474Z" fill="#FFF734"/>
<path d="M13.2797 8.24912L13.5581 9.11224H14.4591L13.7302 9.64568L14.0086 10.5088L13.2797 9.97536L12.5508 10.5088L12.8292 9.64568L12.1003 9.11224H13.0013L13.2797 8.24912Z" fill="#FFF734"/>
</svg>
