<svg width="20" height="20" viewBox="0 0 20 20" fill="none" xmlns="http://www.w3.org/2000/svg">
<path d="M10.7475 18.3068C10.305 18.3081 9.88035 18.1322 9.56834 17.8184L3.04 11.2893C2.6955 10.9457 2.51885 10.4685 2.55667 9.98343L2.97334 4.51176C3.03275 3.68875 3.6885 3.03477 4.51167 2.97759L9.98334 2.56092C10.0258 2.55176 10.0692 2.55176 10.1117 2.55176C10.5532 2.55289 10.9764 2.72841 11.2892 3.04009L17.8183 9.56842C18.131 9.881 18.3067 10.305 18.3067 10.7472C18.3067 11.1893 18.131 11.6133 17.8183 11.9259L11.9258 17.8184C11.614 18.132 11.1897 18.3079 10.7475 18.3068ZM10.1108 4.21842L4.635 4.63509L4.21834 10.1109L10.7475 16.6401L16.6392 10.7484L10.1108 4.21842ZM7.21167 8.87843C6.41654 8.87859 5.73201 8.31706 5.57674 7.53723C5.42146 6.75741 5.83868 5.97649 6.57323 5.67208C7.30778 5.36766 8.15508 5.62452 8.59694 6.28558C9.03881 6.94663 8.95216 7.82776 8.39 8.39009C8.0782 8.70369 7.6539 8.87953 7.21167 8.87843Z" fill="#3570B5"/>
</svg>
