<svg width="24" height="24" viewBox="0 0 24 24" fill="none" xmlns="http://www.w3.org/2000/svg">
<path d="M11.9997 1.05176H11.9996C11.9092 1.05176 11.8266 1.10306 11.7866 1.18415C11.7866 1.18416 11.7866 1.18417 11.7866 1.18418L8.91024 7.01236L8.91023 7.01238C8.56686 7.70807 7.90319 8.19023 7.13551 8.30184L7.1355 8.30184L0.703586 9.23681C0.613929 9.24987 0.539576 9.31263 0.511636 9.3986C0.483733 9.48445 0.506975 9.57889 0.57177 9.64211C0.571785 9.64212 0.5718 9.64214 0.571816 9.64215L5.22611 14.1792L5.22614 14.1792C5.78168 14.7208 6.0352 15.501 5.90401 16.2658L11.9997 1.05176ZM11.9997 1.05176C12.0901 1.05174 12.1727 1.10306 12.2127 1.18413L15.0896 7.01244L15.0896 7.01246C15.4329 7.70797 16.0965 8.19023 16.8642 8.30175C16.8643 8.30175 16.8643 8.30175 16.8643 8.30176L23.2964 9.23678L11.9997 1.05176ZM4.80537 22.6706L5.904 16.2658L23.2965 9.23678C23.386 9.24982 23.4604 9.31252 23.4884 9.3986C23.5162 9.4847 23.4928 9.57905 23.4282 9.64206L23.4282 9.64207L18.7741 14.1793L18.7741 14.1793C18.2187 14.7208 17.9652 15.5009 18.0963 16.2654L18.0963 16.2654L19.1944 22.6707C19.2097 22.7599 19.173 22.8499 19.1001 22.9028L19.0997 22.9031C19.0268 22.9561 18.9299 22.9632 18.8497 22.9211L18.8497 22.921L13.0964 19.897C12.4098 19.536 11.5895 19.536 10.9028 19.8971C10.9028 19.8971 10.9028 19.8971 10.9028 19.8971L5.15008 22.921C5.0701 22.963 4.97309 22.9561 4.89986 22.9029C4.82675 22.8498 4.7901 22.7597 4.80536 22.6706C4.80537 22.6706 4.80537 22.6706 4.80537 22.6706Z" stroke="#888888"/>
</svg>
