<svg width="24" height="24" viewBox="0 0 24 24" fill="none" xmlns="http://www.w3.org/2000/svg">
<path d="M11.3382 0.962866C11.4625 0.711128 11.7188 0.551758 11.9996 0.551758C12.2804 0.551709 12.5368 0.711079 12.661 0.962818L15.5379 6.79113C15.8085 7.33916 16.3313 7.71911 16.9362 7.80695L23.3684 8.74198C23.6462 8.7824 23.877 8.97697 23.9639 9.244C24.0505 9.51098 23.9783 9.80411 23.7772 10.0001L19.1232 14.5373C18.6855 14.964 18.4858 15.5786 18.5891 16.1809L19.6872 22.5863C19.7346 22.863 19.6209 23.1426 19.3938 23.3075C19.1667 23.4726 18.8655 23.4943 18.6171 23.3636L12.8638 20.3395C12.3228 20.0552 11.6765 20.0552 11.1355 20.3396L5.38272 23.3636C5.13419 23.4942 4.83308 23.4724 4.60598 23.3074C4.37883 23.1424 4.26514 22.8627 4.31256 22.5861L5.4112 16.1812C5.51458 15.5787 5.31484 14.964 4.8771 14.5372L0.222757 10.0001C0.0217556 9.80416 -0.0506498 9.51103 0.0361197 9.24405C0.122889 8.97707 0.35369 8.7825 0.631528 8.74203L7.06357 7.80704C7.66843 7.71911 8.19133 7.33921 8.46187 6.79108L11.3382 0.962866Z" fill="#FFC200"/>
</svg>
