<svg width="36" height="36" viewBox="0 0 36 36" fill="none" xmlns="http://www.w3.org/2000/svg">
<path d="M10.5 12C10.5 7.85786 13.8579 4.5 18 4.5C22.1421 4.5 25.5 7.85786 25.5 12C25.5 16.1421 22.1421 19.5 18 19.5C13.8579 19.5 10.5 16.1421 10.5 12ZM18 16.5C20.4853 16.5 22.5 14.4853 22.5 12C22.5 9.51472 20.4853 7.5 18 7.5C15.5147 7.5 13.5 9.51472 13.5 12C13.5 14.4853 15.5147 16.5 18 16.5Z" fill="#3570B5"/>
<path d="M9.51472 24.5147C7.26428 26.7652 6 29.8174 6 33H9C9 30.6131 9.94821 28.3239 11.636 26.636C13.3239 24.9482 15.6131 24 18 24C20.3869 24 22.6761 24.9482 24.364 26.636C26.0518 28.3239 27 30.6131 27 33H30C30 29.8174 28.7357 26.7652 26.4853 24.5147C24.2348 22.2643 21.1826 21 18 21C14.8174 21 11.7652 22.2643 9.51472 24.5147Z" fill="#3570B5"/>
</svg>
