<svg width="20" height="20" viewBox="0 0 20 20" fill="none" xmlns="http://www.w3.org/2000/svg">
<path d="M5.5 6.16667C5.5 3.86548 7.36548 2 9.66667 2C11.9679 2 13.8333 3.86548 13.8333 6.16667C13.8333 8.46785 11.9679 10.3333 9.66667 10.3333C7.36548 10.3333 5.5 8.46785 5.5 6.16667ZM9.66667 8.66667C11.0474 8.66667 12.1667 7.54738 12.1667 6.16667C12.1667 4.78596 11.0474 3.66667 9.66667 3.66667C8.28595 3.66667 7.16667 4.78596 7.16667 6.16667C7.16667 7.54738 8.28595 8.66667 9.66667 8.66667Z" fill="#3570B5"/>
<path d="M4.95262 13.1193C3.70238 14.3695 3 16.0652 3 17.8333H4.66667C4.66667 16.5073 5.19345 15.2355 6.13113 14.2978C7.06881 13.3601 8.34058 12.8333 9.66667 12.8333C10.9927 12.8333 12.2645 13.3601 13.2022 14.2978C14.1399 15.2355 14.6667 16.5073 14.6667 17.8333H16.3333C16.3333 16.0652 15.631 14.3695 14.3807 13.1193C13.1305 11.869 11.4348 11.1667 9.66667 11.1667C7.89856 11.1667 6.20286 11.869 4.95262 13.1193Z" fill="#3570B5"/>
</svg>
